<?xml version="1.0" encoding="UTF-8" standalone="no"?>
<!DOCTYPE svg PUBLIC "-//W3C//DTD SVG 1.1//EN"
 "http://www.w3.org/Graphics/SVG/1.1/DTD/svg11.dtd">
<!-- Generated by graphviz version 2.44.1 (0)
 -->
<!-- Title: inheritance5a21a12bcd Pages: 1 -->
<svg width="576pt" height="370pt"
 viewBox="0.00 0.00 576.00 370.12" xmlns="http://www.w3.org/2000/svg" xmlns:xlink="http://www.w3.org/1999/xlink">
<g id="graph0" class="graph" transform="scale(0.76 0.76) rotate(0) translate(4 485)">
<title>inheritance5a21a12bcd</title>
<!-- Any -->
<g id="node1" class="node">
<title>Any</title>
<g id="a_node1"><a xlink:href="../pages/pydsdl.html#pydsdl._expression._any.Any" xlink:title="This abstract class represents an arbitrary intrinsic DSDL expression value." target="_top">
<polygon fill="white" stroke="#000000" stroke-width="0.5" points="54,-130 0,-130 0,-111 54,-111 54,-130"/>
<text text-anchor="middle" x="27" y="-118" font-family="Vera Sans, DejaVu Sans, Liberation Sans, Arial, Helvetica, sans" font-size="10.00" fill="#000000">Any</text>
</a>
</g>
</g>
<!-- SerializableType -->
<g id="node5" class="node">
<title>SerializableType</title>
<g id="a_node5"><a xlink:href="../pages/pydsdl.html#pydsdl._serializable._serializable.SerializableType" xlink:title="Instances are immutable." target="_top">
<polygon fill="white" stroke="#000000" stroke-width="0.5" points="186,-278 90,-278 90,-259 186,-259 186,-278"/>
<text text-anchor="middle" x="138" y="-266" font-family="Vera Sans, DejaVu Sans, Liberation Sans, Arial, Helvetica, sans" font-size="10.00" fill="#000000">SerializableType</text>
</a>
</g>
</g>
<!-- Any&#45;&gt;SerializableType -->
<g id="edge18" class="edge">
<title>Any&#45;&gt;SerializableType</title>
<path fill="none" stroke="#000000" stroke-width="0.5" d="M35.15,-130.21C54.02,-155.83 105.19,-225.31 126.97,-254.88"/>
<polygon fill="#000000" stroke="#000000" stroke-width="0.5" points="125.59,-255.96 129.96,-258.95 128.41,-253.88 125.59,-255.96"/>
</g>
<!-- Attribute -->
<g id="node6" class="node">
<title>Attribute</title>
<g id="a_node6"><a xlink:href="../pages/pydsdl.html#pydsdl._serializable._attribute.Attribute" xlink:title="Attribute" target="_top">
<polygon fill="white" stroke="#000000" stroke-width="0.5" points="167.5,-167 108.5,-167 108.5,-148 167.5,-148 167.5,-167"/>
<text text-anchor="middle" x="138" y="-155" font-family="Vera Sans, DejaVu Sans, Liberation Sans, Arial, Helvetica, sans" font-size="10.00" fill="#000000">Attribute</text>
</a>
</g>
</g>
<!-- Any&#45;&gt;Attribute -->
<g id="edge3" class="edge">
<title>Any&#45;&gt;Attribute</title>
<path fill="none" stroke="#000000" stroke-width="0.5" d="M54.11,-129.36C69.06,-134.44 87.97,-140.86 103.96,-146.28"/>
<polygon fill="#000000" stroke="#000000" stroke-width="0.5" points="103.52,-147.98 108.81,-147.93 104.64,-144.67 103.52,-147.98"/>
</g>
<!-- Primitive -->
<g id="node8" class="node">
<title>Primitive</title>
<g id="a_node8"><a xlink:href="../pages/pydsdl.html#pydsdl._expression._primitive.Primitive" xlink:title="Primitive" target="_top">
<polygon fill="white" stroke="#000000" stroke-width="0.5" points="168.5,-112 107.5,-112 107.5,-93 168.5,-93 168.5,-112"/>
<text text-anchor="middle" x="138" y="-100" font-family="Vera Sans, DejaVu Sans, Liberation Sans, Arial, Helvetica, sans" font-size="10.00" fill="#000000">Primitive</text>
</a>
</g>
</g>
<!-- Any&#45;&gt;Primitive -->
<g id="edge15" class="edge">
<title>Any&#45;&gt;Primitive</title>
<path fill="none" stroke="#000000" stroke-width="0.5" d="M54.11,-116.19C68.48,-113.82 86.51,-110.84 102.08,-108.27"/>
<polygon fill="#000000" stroke="#000000" stroke-width="0.5" points="102.61,-109.95 107.25,-107.41 102.04,-106.5 102.61,-109.95"/>
</g>
<!-- Container -->
<g id="node12" class="node">
<title>Container</title>
<g id="a_node12"><a xlink:href="../pages/pydsdl.html#pydsdl._expression._container.Container" xlink:title="Container" target="_top">
<polygon fill="white" stroke="#000000" stroke-width="0.5" points="170,-38 106,-38 106,-19 170,-19 170,-38"/>
<text text-anchor="middle" x="138" y="-26" font-family="Vera Sans, DejaVu Sans, Liberation Sans, Arial, Helvetica, sans" font-size="10.00" fill="#000000">Container</text>
</a>
</g>
</g>
<!-- Any&#45;&gt;Container -->
<g id="edge8" class="edge">
<title>Any&#45;&gt;Container</title>
<path fill="none" stroke="#000000" stroke-width="0.5" d="M39.66,-110.65C59.42,-93.98 99.44,-60.2 121.51,-41.57"/>
<polygon fill="#000000" stroke="#000000" stroke-width="0.5" points="122.73,-42.84 125.42,-38.27 120.47,-40.16 122.73,-42.84"/>
</g>
<!-- ArithmeticType -->
<g id="node2" class="node">
<title>ArithmeticType</title>
<g id="a_node2"><a xlink:href="../pages/pydsdl.html#pydsdl._serializable._primitive.ArithmeticType" xlink:title="ArithmeticType" target="_top">
<polygon fill="white" stroke="#000000" stroke-width="0.5" points="464,-463 374,-463 374,-444 464,-444 464,-463"/>
<text text-anchor="middle" x="419" y="-451" font-family="Vera Sans, DejaVu Sans, Liberation Sans, Arial, Helvetica, sans" font-size="10.00" fill="#000000">ArithmeticType</text>
</a>
</g>
</g>
<!-- FloatType -->
<g id="node16" class="node">
<title>FloatType</title>
<g id="a_node16"><a xlink:href="../pages/pydsdl.html#pydsdl._serializable._primitive.FloatType" xlink:title="FloatType" target="_top">
<polygon fill="white" stroke="#000000" stroke-width="0.5" points="593,-481 529,-481 529,-462 593,-462 593,-481"/>
<text text-anchor="middle" x="561" y="-469" font-family="Vera Sans, DejaVu Sans, Liberation Sans, Arial, Helvetica, sans" font-size="10.00" fill="#000000">FloatType</text>
</a>
</g>
</g>
<!-- ArithmeticType&#45;&gt;FloatType -->
<g id="edge12" class="edge">
<title>ArithmeticType&#45;&gt;FloatType</title>
<path fill="none" stroke="#000000" stroke-width="0.5" d="M464.3,-459.2C483.48,-461.66 505.66,-464.51 523.83,-466.85"/>
<polygon fill="#000000" stroke="#000000" stroke-width="0.5" points="523.66,-468.59 528.84,-467.49 524.11,-465.12 523.66,-468.59"/>
</g>
<!-- IntegerType -->
<g id="node17" class="node">
<title>IntegerType</title>
<g id="a_node17"><a xlink:href="../pages/pydsdl.html#pydsdl._serializable._primitive.IntegerType" xlink:title="IntegerType" target="_top">
<polygon fill="white" stroke="#000000" stroke-width="0.5" points="598,-444 524,-444 524,-425 598,-425 598,-444"/>
<text text-anchor="middle" x="561" y="-432" font-family="Vera Sans, DejaVu Sans, Liberation Sans, Arial, Helvetica, sans" font-size="10.00" fill="#000000">IntegerType</text>
</a>
</g>
</g>
<!-- ArithmeticType&#45;&gt;IntegerType -->
<g id="edge13" class="edge">
<title>ArithmeticType&#45;&gt;IntegerType</title>
<path fill="none" stroke="#000000" stroke-width="0.5" d="M464.3,-447.49C481.72,-445.12 501.61,-442.42 518.73,-440.1"/>
<polygon fill="#000000" stroke="#000000" stroke-width="0.5" points="519.23,-441.8 523.95,-439.39 518.76,-438.33 519.23,-441.8"/>
</g>
<!-- PrimitiveType -->
<g id="node3" class="node">
<title>PrimitiveType</title>
<g id="a_node3"><a xlink:href="../pages/pydsdl.html#pydsdl._serializable._primitive.PrimitiveType" xlink:title="PrimitiveType" target="_top">
<polygon fill="white" stroke="#000000" stroke-width="0.5" points="309.5,-426 226.5,-426 226.5,-407 309.5,-407 309.5,-426"/>
<text text-anchor="middle" x="268" y="-414" font-family="Vera Sans, DejaVu Sans, Liberation Sans, Arial, Helvetica, sans" font-size="10.00" fill="#000000">PrimitiveType</text>
</a>
</g>
</g>
<!-- PrimitiveType&#45;&gt;ArithmeticType -->
<g id="edge1" class="edge">
<title>PrimitiveType&#45;&gt;ArithmeticType</title>
<path fill="none" stroke="#000000" stroke-width="0.5" d="M307.37,-426.03C327.89,-431.12 353.22,-437.41 374.47,-442.69"/>
<polygon fill="#000000" stroke="#000000" stroke-width="0.5" points="374.23,-444.43 379.5,-443.94 375.07,-441.04 374.23,-444.43"/>
</g>
<!-- BooleanType -->
<g id="node9" class="node">
<title>BooleanType</title>
<g id="a_node9"><a xlink:href="../pages/pydsdl.html#pydsdl._serializable._primitive.BooleanType" xlink:title="BooleanType" target="_top">
<polygon fill="white" stroke="#000000" stroke-width="0.5" points="458.5,-426 379.5,-426 379.5,-407 458.5,-407 458.5,-426"/>
<text text-anchor="middle" x="419" y="-414" font-family="Vera Sans, DejaVu Sans, Liberation Sans, Arial, Helvetica, sans" font-size="10.00" fill="#000000">BooleanType</text>
</a>
</g>
</g>
<!-- PrimitiveType&#45;&gt;BooleanType -->
<g id="edge5" class="edge">
<title>PrimitiveType&#45;&gt;BooleanType</title>
<path fill="none" stroke="#000000" stroke-width="0.5" d="M309.71,-416.5C329.73,-416.5 353.88,-416.5 374.28,-416.5"/>
<polygon fill="#000000" stroke="#000000" stroke-width="0.5" points="374.39,-418.25 379.39,-416.5 374.39,-414.75 374.39,-418.25"/>
</g>
<!-- ArrayType -->
<g id="node4" class="node">
<title>ArrayType</title>
<g id="a_node4"><a xlink:href="../pages/pydsdl.html#pydsdl._serializable._array.ArrayType" xlink:title="ArrayType" target="_top">
<polygon fill="white" stroke="#000000" stroke-width="0.5" points="300.5,-352 235.5,-352 235.5,-333 300.5,-333 300.5,-352"/>
<text text-anchor="middle" x="268" y="-340" font-family="Vera Sans, DejaVu Sans, Liberation Sans, Arial, Helvetica, sans" font-size="10.00" fill="#000000">ArrayType</text>
</a>
</g>
</g>
<!-- FixedLengthArrayType -->
<g id="node15" class="node">
<title>FixedLengthArrayType</title>
<g id="a_node15"><a xlink:href="../pages/pydsdl.html#pydsdl._serializable._array.FixedLengthArrayType" xlink:title="FixedLengthArrayType" target="_top">
<polygon fill="white" stroke="#000000" stroke-width="0.5" points="481,-389 357,-389 357,-370 481,-370 481,-389"/>
<text text-anchor="middle" x="419" y="-377" font-family="Vera Sans, DejaVu Sans, Liberation Sans, Arial, Helvetica, sans" font-size="10.00" fill="#000000">FixedLengthArrayType</text>
</a>
</g>
</g>
<!-- ArrayType&#45;&gt;FixedLengthArrayType -->
<g id="edge11" class="edge">
<title>ArrayType&#45;&gt;FixedLengthArrayType</title>
<path fill="none" stroke="#000000" stroke-width="0.5" d="M300.6,-350.35C322.13,-355.69 350.92,-362.84 374.6,-368.72"/>
<polygon fill="#000000" stroke="#000000" stroke-width="0.5" points="374.29,-370.45 379.57,-369.96 375.14,-367.05 374.29,-370.45"/>
</g>
<!-- VariableLengthArrayType -->
<g id="node27" class="node">
<title>VariableLengthArrayType</title>
<g id="a_node27"><a xlink:href="../pages/pydsdl.html#pydsdl._serializable._array.VariableLengthArrayType" xlink:title="VariableLengthArrayType" target="_top">
<polygon fill="white" stroke="#000000" stroke-width="0.5" points="488,-352 350,-352 350,-333 488,-333 488,-352"/>
<text text-anchor="middle" x="419" y="-340" font-family="Vera Sans, DejaVu Sans, Liberation Sans, Arial, Helvetica, sans" font-size="10.00" fill="#000000">VariableLengthArrayType</text>
</a>
</g>
</g>
<!-- ArrayType&#45;&gt;VariableLengthArrayType -->
<g id="edge26" class="edge">
<title>ArrayType&#45;&gt;VariableLengthArrayType</title>
<path fill="none" stroke="#000000" stroke-width="0.5" d="M300.6,-342.5C313.57,-342.5 329.17,-342.5 344.7,-342.5"/>
<polygon fill="#000000" stroke="#000000" stroke-width="0.5" points="344.97,-344.25 349.97,-342.5 344.97,-340.75 344.97,-344.25"/>
</g>
<!-- SerializableType&#45;&gt;PrimitiveType -->
<g id="edge16" class="edge">
<title>SerializableType&#45;&gt;PrimitiveType</title>
<path fill="none" stroke="#000000" stroke-width="0.5" d="M147.4,-278.21C169.56,-303.83 229.65,-373.31 255.22,-402.88"/>
<polygon fill="#000000" stroke="#000000" stroke-width="0.5" points="254.14,-404.31 258.74,-406.95 256.79,-402.02 254.14,-404.31"/>
</g>
<!-- SerializableType&#45;&gt;ArrayType -->
<g id="edge2" class="edge">
<title>SerializableType&#45;&gt;ArrayType</title>
<path fill="none" stroke="#000000" stroke-width="0.5" d="M155.47,-278.02C178.48,-291.33 220.27,-315.48 245.65,-330.15"/>
<polygon fill="#000000" stroke="#000000" stroke-width="0.5" points="244.98,-331.79 250.19,-332.78 246.73,-328.76 244.98,-331.79"/>
</g>
<!-- CompositeType -->
<g id="node10" class="node">
<title>CompositeType</title>
<g id="a_node10"><a xlink:href="../pages/pydsdl.html#pydsdl._serializable._composite.CompositeType" xlink:title="This is the most interesting type in the library because it represents an actual DSDL definition upon its" target="_top">
<polygon fill="white" stroke="#000000" stroke-width="0.5" points="314,-278 222,-278 222,-259 314,-259 314,-278"/>
<text text-anchor="middle" x="268" y="-266" font-family="Vera Sans, DejaVu Sans, Liberation Sans, Arial, Helvetica, sans" font-size="10.00" fill="#000000">CompositeType</text>
</a>
</g>
</g>
<!-- SerializableType&#45;&gt;CompositeType -->
<g id="edge6" class="edge">
<title>SerializableType&#45;&gt;CompositeType</title>
<path fill="none" stroke="#000000" stroke-width="0.5" d="M186.3,-268.5C196.12,-268.5 206.51,-268.5 216.45,-268.5"/>
<polygon fill="#000000" stroke="#000000" stroke-width="0.5" points="216.6,-270.25 221.6,-268.5 216.6,-266.75 216.6,-270.25"/>
</g>
<!-- VoidType -->
<g id="node28" class="node">
<title>VoidType</title>
<g id="a_node28"><a xlink:href="../pages/pydsdl.html#pydsdl._serializable._void.VoidType" xlink:title="VoidType" target="_top">
<polygon fill="white" stroke="#000000" stroke-width="0.5" points="298,-241 238,-241 238,-222 298,-222 298,-241"/>
<text text-anchor="middle" x="268" y="-229" font-family="Vera Sans, DejaVu Sans, Liberation Sans, Arial, Helvetica, sans" font-size="10.00" fill="#000000">VoidType</text>
</a>
</g>
</g>
<!-- SerializableType&#45;&gt;VoidType -->
<g id="edge27" class="edge">
<title>SerializableType&#45;&gt;VoidType</title>
<path fill="none" stroke="#000000" stroke-width="0.5" d="M171.96,-258.97C190.52,-253.61 213.66,-246.92 232.46,-241.48"/>
<polygon fill="#000000" stroke="#000000" stroke-width="0.5" points="233.32,-243.06 237.64,-239.99 232.35,-239.69 233.32,-243.06"/>
</g>
<!-- Constant -->
<g id="node11" class="node">
<title>Constant</title>
<g id="a_node11"><a xlink:href="../pages/pydsdl.html#pydsdl._serializable._attribute.Constant" xlink:title="Constant" target="_top">
<polygon fill="white" stroke="#000000" stroke-width="0.5" points="298,-204 238,-204 238,-185 298,-185 298,-204"/>
<text text-anchor="middle" x="268" y="-192" font-family="Vera Sans, DejaVu Sans, Liberation Sans, Arial, Helvetica, sans" font-size="10.00" fill="#000000">Constant</text>
</a>
</g>
</g>
<!-- Attribute&#45;&gt;Constant -->
<g id="edge7" class="edge">
<title>Attribute&#45;&gt;Constant</title>
<path fill="none" stroke="#000000" stroke-width="0.5" d="M167.73,-165.8C187.02,-171.38 212.54,-178.76 232.88,-184.64"/>
<polygon fill="#000000" stroke="#000000" stroke-width="0.5" points="232.64,-186.39 237.93,-186.1 233.61,-183.03 232.64,-186.39"/>
</g>
<!-- Field -->
<g id="node14" class="node">
<title>Field</title>
<g id="a_node14"><a xlink:href="../pages/pydsdl.html#pydsdl._serializable._attribute.Field" xlink:title="Field" target="_top">
<polygon fill="white" stroke="#000000" stroke-width="0.5" points="295,-167 241,-167 241,-148 295,-148 295,-167"/>
<text text-anchor="middle" x="268" y="-155" font-family="Vera Sans, DejaVu Sans, Liberation Sans, Arial, Helvetica, sans" font-size="10.00" fill="#000000">Field</text>
</a>
</g>
</g>
<!-- Attribute&#45;&gt;Field -->
<g id="edge10" class="edge">
<title>Attribute&#45;&gt;Field</title>
<path fill="none" stroke="#000000" stroke-width="0.5" d="M167.73,-157.5C187.97,-157.5 215.07,-157.5 235.84,-157.5"/>
<polygon fill="#000000" stroke="#000000" stroke-width="0.5" points="235.98,-159.25 240.98,-157.5 235.98,-155.75 235.98,-159.25"/>
</g>
<!-- Boolean -->
<g id="node7" class="node">
<title>Boolean</title>
<g id="a_node7"><a xlink:href="../pages/pydsdl.html#pydsdl._expression._primitive.Boolean" xlink:title="Boolean" target="_top">
<polygon fill="white" stroke="#000000" stroke-width="0.5" points="296,-130 240,-130 240,-111 296,-111 296,-130"/>
<text text-anchor="middle" x="268" y="-118" font-family="Vera Sans, DejaVu Sans, Liberation Sans, Arial, Helvetica, sans" font-size="10.00" fill="#000000">Boolean</text>
</a>
</g>
</g>
<!-- Primitive&#45;&gt;Boolean -->
<g id="edge4" class="edge">
<title>Primitive&#45;&gt;Boolean</title>
<path fill="none" stroke="#000000" stroke-width="0.5" d="M168.69,-106.67C188.43,-109.45 214.36,-113.1 234.63,-115.95"/>
<polygon fill="#000000" stroke="#000000" stroke-width="0.5" points="234.46,-117.69 239.66,-116.66 234.95,-114.23 234.46,-117.69"/>
</g>
<!-- Rational -->
<g id="node19" class="node">
<title>Rational</title>
<g id="a_node19"><a xlink:href="../pages/pydsdl.html#pydsdl._expression._primitive.Rational" xlink:title="Rational" target="_top">
<polygon fill="white" stroke="#000000" stroke-width="0.5" points="296.5,-93 239.5,-93 239.5,-74 296.5,-74 296.5,-93"/>
<text text-anchor="middle" x="268" y="-81" font-family="Vera Sans, DejaVu Sans, Liberation Sans, Arial, Helvetica, sans" font-size="10.00" fill="#000000">Rational</text>
</a>
</g>
</g>
<!-- Primitive&#45;&gt;Rational -->
<g id="edge17" class="edge">
<title>Primitive&#45;&gt;Rational</title>
<path fill="none" stroke="#000000" stroke-width="0.5" d="M168.69,-98.09C188.3,-95.18 214,-91.37 234.21,-88.37"/>
<polygon fill="#000000" stroke="#000000" stroke-width="0.5" points="234.54,-90.09 239.23,-87.62 234.02,-86.63 234.54,-90.09"/>
</g>
<!-- String -->
<g id="node23" class="node">
<title>String</title>
<g id="a_node23"><a xlink:href="../pages/pydsdl.html#pydsdl._expression._primitive.String" xlink:title="String" target="_top">
<polygon fill="white" stroke="#000000" stroke-width="0.5" points="295,-56 241,-56 241,-37 295,-37 295,-56"/>
<text text-anchor="middle" x="268" y="-44" font-family="Vera Sans, DejaVu Sans, Liberation Sans, Arial, Helvetica, sans" font-size="10.00" fill="#000000">String</text>
</a>
</g>
</g>
<!-- Primitive&#45;&gt;String -->
<g id="edge22" class="edge">
<title>Primitive&#45;&gt;String</title>
<path fill="none" stroke="#000000" stroke-width="0.5" d="M160.1,-92.96C176.85,-85.41 200.87,-74.67 222,-65.5 227.59,-63.07 233.59,-60.51 239.33,-58.08"/>
<polygon fill="#000000" stroke="#000000" stroke-width="0.5" points="240.15,-59.64 244.07,-56.08 238.78,-56.41 240.15,-59.64"/>
</g>
<!-- DelimitedType -->
<g id="node13" class="node">
<title>DelimitedType</title>
<g id="a_node13"><a xlink:href="../pages/pydsdl.html#pydsdl._serializable._composite.DelimitedType" xlink:title="Composites that are not final are wrapped into this container." target="_top">
<polygon fill="white" stroke="#000000" stroke-width="0.5" points="462.5,-315 375.5,-315 375.5,-296 462.5,-296 462.5,-315"/>
<text text-anchor="middle" x="419" y="-303" font-family="Vera Sans, DejaVu Sans, Liberation Sans, Arial, Helvetica, sans" font-size="10.00" fill="#000000">DelimitedType</text>
</a>
</g>
</g>
<!-- CompositeType&#45;&gt;DelimitedType -->
<g id="edge9" class="edge">
<title>CompositeType&#45;&gt;DelimitedType</title>
<path fill="none" stroke="#000000" stroke-width="0.5" d="M307.37,-278.03C327.89,-283.12 353.22,-289.41 374.47,-294.69"/>
<polygon fill="#000000" stroke="#000000" stroke-width="0.5" points="374.23,-296.43 379.5,-295.94 375.07,-293.04 374.23,-296.43"/>
</g>
<!-- ServiceType -->
<g id="node20" class="node">
<title>ServiceType</title>
<g id="a_node20"><a xlink:href="../pages/pydsdl.html#pydsdl._serializable._composite.ServiceType" xlink:title="A service (not message) type." target="_top">
<polygon fill="white" stroke="#000000" stroke-width="0.5" points="456.5,-278 381.5,-278 381.5,-259 456.5,-259 456.5,-278"/>
<text text-anchor="middle" x="419" y="-266" font-family="Vera Sans, DejaVu Sans, Liberation Sans, Arial, Helvetica, sans" font-size="10.00" fill="#000000">ServiceType</text>
</a>
</g>
</g>
<!-- CompositeType&#45;&gt;ServiceType -->
<g id="edge19" class="edge">
<title>CompositeType&#45;&gt;ServiceType</title>
<path fill="none" stroke="#000000" stroke-width="0.5" d="M314.11,-268.5C333.68,-268.5 356.48,-268.5 375.72,-268.5"/>
<polygon fill="#000000" stroke="#000000" stroke-width="0.5" points="376.05,-270.25 381.05,-268.5 376.05,-266.75 376.05,-270.25"/>
</g>
<!-- StructureType -->
<g id="node24" class="node">
<title>StructureType</title>
<g id="a_node24"><a xlink:href="../pages/pydsdl.html#pydsdl._serializable._composite.StructureType" xlink:title="A message type that is NOT marked ``@union``." target="_top">
<polygon fill="white" stroke="#000000" stroke-width="0.5" points="460.5,-241 377.5,-241 377.5,-222 460.5,-222 460.5,-241"/>
<text text-anchor="middle" x="419" y="-229" font-family="Vera Sans, DejaVu Sans, Liberation Sans, Arial, Helvetica, sans" font-size="10.00" fill="#000000">StructureType</text>
</a>
</g>
</g>
<!-- CompositeType&#45;&gt;StructureType -->
<g id="edge23" class="edge">
<title>CompositeType&#45;&gt;StructureType</title>
<path fill="none" stroke="#000000" stroke-width="0.5" d="M307.37,-258.97C327.89,-253.88 353.22,-247.59 374.47,-242.31"/>
<polygon fill="#000000" stroke="#000000" stroke-width="0.5" points="375.07,-243.96 379.5,-241.06 374.23,-240.57 375.07,-243.96"/>
</g>
<!-- UnionType -->
<g id="node25" class="node">
<title>UnionType</title>
<g id="a_node25"><a xlink:href="../pages/pydsdl.html#pydsdl._serializable._composite.UnionType" xlink:title="A message type that is marked ``@union``." target="_top">
<polygon fill="white" stroke="#000000" stroke-width="0.5" points="453,-204 385,-204 385,-185 453,-185 453,-204"/>
<text text-anchor="middle" x="419" y="-192" font-family="Vera Sans, DejaVu Sans, Liberation Sans, Arial, Helvetica, sans" font-size="10.00" fill="#000000">UnionType</text>
</a>
</g>
</g>
<!-- CompositeType&#45;&gt;UnionType -->
<g id="edge24" class="edge">
<title>CompositeType&#45;&gt;UnionType</title>
<path fill="none" stroke="#000000" stroke-width="0.5" d="M297.99,-258.99C303.52,-256.61 309.11,-253.78 314,-250.5 333.07,-237.74 330.27,-225.21 350,-213.5 359.06,-208.12 369.7,-204.21 379.84,-201.39"/>
<polygon fill="#000000" stroke="#000000" stroke-width="0.5" points="380.37,-203.06 384.76,-200.1 379.48,-199.68 380.37,-203.06"/>
</g>
<!-- Set -->
<g id="node21" class="node">
<title>Set</title>
<g id="a_node21"><a xlink:href="../pages/pydsdl.html#pydsdl._expression._container.Set" xlink:title="Set" target="_top">
<polygon fill="white" stroke="#000000" stroke-width="0.5" points="295,-19 241,-19 241,0 295,0 295,-19"/>
<text text-anchor="middle" x="268" y="-7" font-family="Vera Sans, DejaVu Sans, Liberation Sans, Arial, Helvetica, sans" font-size="10.00" fill="#000000">Set</text>
</a>
</g>
</g>
<!-- Container&#45;&gt;Set -->
<g id="edge20" class="edge">
<title>Container&#45;&gt;Set</title>
<path fill="none" stroke="#000000" stroke-width="0.5" d="M170.31,-23.85C190.15,-20.91 215.72,-17.11 235.58,-14.16"/>
<polygon fill="#000000" stroke="#000000" stroke-width="0.5" points="236.07,-15.86 240.76,-13.4 235.55,-12.4 236.07,-15.86"/>
</g>
<!-- PaddingField -->
<g id="node18" class="node">
<title>PaddingField</title>
<g id="a_node18"><a xlink:href="../pages/pydsdl.html#pydsdl._serializable._attribute.PaddingField" xlink:title="PaddingField" target="_top">
<polygon fill="white" stroke="#000000" stroke-width="0.5" points="458,-167 380,-167 380,-148 458,-148 458,-167"/>
<text text-anchor="middle" x="419" y="-155" font-family="Vera Sans, DejaVu Sans, Liberation Sans, Arial, Helvetica, sans" font-size="10.00" fill="#000000">PaddingField</text>
</a>
</g>
</g>
<!-- Field&#45;&gt;PaddingField -->
<g id="edge14" class="edge">
<title>Field&#45;&gt;PaddingField</title>
<path fill="none" stroke="#000000" stroke-width="0.5" d="M295.3,-157.5C317.3,-157.5 349.15,-157.5 374.88,-157.5"/>
<polygon fill="#000000" stroke="#000000" stroke-width="0.5" points="374.94,-159.25 379.94,-157.5 374.94,-155.75 374.94,-159.25"/>
</g>
<!-- SignedIntegerType -->
<g id="node22" class="node">
<title>SignedIntegerType</title>
<g id="a_node22"><a xlink:href="../pages/pydsdl.html#pydsdl._serializable._primitive.SignedIntegerType" xlink:title="SignedIntegerType" target="_top">
<polygon fill="white" stroke="#000000" stroke-width="0.5" points="747,-463 640,-463 640,-444 747,-444 747,-463"/>
<text text-anchor="middle" x="693.5" y="-451" font-family="Vera Sans, DejaVu Sans, Liberation Sans, Arial, Helvetica, sans" font-size="10.00" fill="#000000">SignedIntegerType</text>
</a>
</g>
</g>
<!-- IntegerType&#45;&gt;SignedIntegerType -->
<g id="edge21" class="edge">
<title>IntegerType&#45;&gt;SignedIntegerType</title>
<path fill="none" stroke="#000000" stroke-width="0.5" d="M598.01,-439.74C609.46,-441.41 622.43,-443.3 635.01,-445.13"/>
<polygon fill="#000000" stroke="#000000" stroke-width="0.5" points="634.8,-446.87 640,-445.86 635.3,-443.4 634.8,-446.87"/>
</g>
<!-- UnsignedIntegerType -->
<g id="node26" class="node">
<title>UnsignedIntegerType</title>
<g id="a_node26"><a xlink:href="../pages/pydsdl.html#pydsdl._serializable._primitive.UnsignedIntegerType" xlink:title="UnsignedIntegerType" target="_top">
<polygon fill="white" stroke="#000000" stroke-width="0.5" points="753,-426 634,-426 634,-407 753,-407 753,-426"/>
<text text-anchor="middle" x="693.5" y="-414" font-family="Vera Sans, DejaVu Sans, Liberation Sans, Arial, Helvetica, sans" font-size="10.00" fill="#000000">UnsignedIntegerType</text>
</a>
</g>
</g>
<!-- IntegerType&#45;&gt;UnsignedIntegerType -->
<g id="edge25" class="edge">
<title>IntegerType&#45;&gt;UnsignedIntegerType</title>
<path fill="none" stroke="#000000" stroke-width="0.5" d="M598.01,-429.53C607.47,-428.23 617.97,-426.78 628.43,-425.34"/>
<polygon fill="#000000" stroke="#000000" stroke-width="0.5" points="628.85,-427.05 633.56,-424.63 628.37,-423.58 628.85,-427.05"/>
</g>
</g>
</svg>
