<?xml version="1.0" encoding="UTF-8" standalone="no"?>
<!DOCTYPE svg PUBLIC "-//W3C//DTD SVG 1.1//EN"
 "http://www.w3.org/Graphics/SVG/1.1/DTD/svg11.dtd">
<!-- Generated by graphviz version 2.44.1 (0)
 -->
<!-- Title: inheritancea2ae31eac5 Pages: 1 -->
<svg width="576pt" height="634pt"
 viewBox="0.00 0.00 576.00 634.17" xmlns="http://www.w3.org/2000/svg" xmlns:xlink="http://www.w3.org/1999/xlink">
<g id="graph0" class="graph" transform="scale(0.81 0.81) rotate(0) translate(4 781)">
<title>inheritancea2ae31eac5</title>
<!-- AssertionCheckFailureError -->
<g id="node1" class="node">
<title>AssertionCheckFailureError</title>
<polygon fill="white" stroke="#000000" stroke-width="0.5" points="461.5,-611 313.5,-611 313.5,-592 461.5,-592 461.5,-611"/>
<text text-anchor="middle" x="387.5" y="-599" font-family="Vera Sans, DejaVu Sans, Liberation Sans, Arial, Helvetica, sans" font-size="10.00" fill="#000000">AssertionCheckFailureError</text>
</g>
<!-- InvalidDefinitionError -->
<g id="node2" class="node">
<title>InvalidDefinitionError</title>
<g id="a_node2"><a xlink:title="This exception type is used to point out mistakes and errors in DSDL definitions.">
<polygon fill="white" stroke="#000000" stroke-width="0.5" points="239,-315 119,-315 119,-296 239,-296 239,-315"/>
<text text-anchor="middle" x="179" y="-303" font-family="Vera Sans, DejaVu Sans, Liberation Sans, Arial, Helvetica, sans" font-size="10.00" fill="#000000">InvalidDefinitionError</text>
</a>
</g>
</g>
<!-- InvalidDefinitionError&#45;&gt;AssertionCheckFailureError -->
<g id="edge1" class="edge">
<title>InvalidDefinitionError&#45;&gt;AssertionCheckFailureError</title>
<path fill="none" stroke="#000000" stroke-width="0.5" d="M180,-315.04C180.57,-355.05 188.45,-510.49 275,-583.5 284.53,-591.54 296.2,-596.69 308.36,-599.9"/>
<polygon fill="#000000" stroke="#000000" stroke-width="0.5" points="307.95,-601.6 313.22,-601.08 308.77,-598.2 307.95,-601.6"/>
</g>
<!-- TypeParameterError -->
<g id="node4" class="node">
<title>TypeParameterError</title>
<polygon fill="white" stroke="#000000" stroke-width="0.5" points="444,-574 331,-574 331,-555 444,-555 444,-574"/>
<text text-anchor="middle" x="387.5" y="-562" font-family="Vera Sans, DejaVu Sans, Liberation Sans, Arial, Helvetica, sans" font-size="10.00" fill="#000000">TypeParameterError</text>
</g>
<!-- InvalidDefinitionError&#45;&gt;TypeParameterError -->
<g id="edge27" class="edge">
<title>InvalidDefinitionError&#45;&gt;TypeParameterError</title>
<path fill="none" stroke="#000000" stroke-width="0.5" d="M180.55,-315.03C183.23,-351.67 198.1,-484.61 275,-546.5 289.24,-557.96 307.9,-563.46 325.87,-565.82"/>
<polygon fill="#000000" stroke="#000000" stroke-width="0.5" points="325.74,-567.57 330.91,-566.41 326.15,-564.09 325.74,-567.57"/>
</g>
<!-- BitLengthAnalysisError -->
<g id="node5" class="node">
<title>BitLengthAnalysisError</title>
<polygon fill="white" stroke="#000000" stroke-width="0.5" points="451.5,-537 323.5,-537 323.5,-518 451.5,-518 451.5,-537"/>
<text text-anchor="middle" x="387.5" y="-525" font-family="Vera Sans, DejaVu Sans, Liberation Sans, Arial, Helvetica, sans" font-size="10.00" fill="#000000">BitLengthAnalysisError</text>
</g>
<!-- InvalidDefinitionError&#45;&gt;BitLengthAnalysisError -->
<g id="edge3" class="edge">
<title>InvalidDefinitionError&#45;&gt;BitLengthAnalysisError</title>
<path fill="none" stroke="#000000" stroke-width="0.5" d="M181.3,-315.16C186.33,-348.36 207.69,-458.6 275,-509.5 287.36,-518.85 302.73,-524.14 318.06,-526.99"/>
<polygon fill="#000000" stroke="#000000" stroke-width="0.5" points="318.03,-528.76 323.25,-527.87 318.61,-525.31 318.03,-528.76"/>
</g>
<!-- DSDLSyntaxError -->
<g id="node6" class="node">
<title>DSDLSyntaxError</title>
<polygon fill="white" stroke="#000000" stroke-width="0.5" points="437.5,-500 337.5,-500 337.5,-481 437.5,-481 437.5,-500"/>
<text text-anchor="middle" x="387.5" y="-488" font-family="Vera Sans, DejaVu Sans, Liberation Sans, Arial, Helvetica, sans" font-size="10.00" fill="#000000">DSDLSyntaxError</text>
</g>
<!-- InvalidDefinitionError&#45;&gt;DSDLSyntaxError -->
<g id="edge4" class="edge">
<title>InvalidDefinitionError&#45;&gt;DSDLSyntaxError</title>
<path fill="none" stroke="#000000" stroke-width="0.5" d="M182.31,-315.03C189.88,-344.11 216.91,-432.17 275,-472.5 291.49,-483.95 312.62,-489.12 332.05,-491.2"/>
<polygon fill="#000000" stroke="#000000" stroke-width="0.5" points="332.33,-492.99 337.48,-491.71 332.66,-489.5 332.33,-492.99"/>
</g>
<!-- DataTypeNameCollisionError -->
<g id="node7" class="node">
<title>DataTypeNameCollisionError</title>
<g id="a_node7"><a xlink:title="Raised when there are conflicting data type names.">
<polygon fill="white" stroke="#000000" stroke-width="0.5" points="466,-463 309,-463 309,-444 466,-444 466,-463"/>
<text text-anchor="middle" x="387.5" y="-451" font-family="Vera Sans, DejaVu Sans, Liberation Sans, Arial, Helvetica, sans" font-size="10.00" fill="#000000">DataTypeNameCollisionError</text>
</a>
</g>
</g>
<!-- InvalidDefinitionError&#45;&gt;DataTypeNameCollisionError -->
<g id="edge5" class="edge">
<title>InvalidDefinitionError&#45;&gt;DataTypeNameCollisionError</title>
<path fill="none" stroke="#000000" stroke-width="0.5" d="M183.99,-315.36C194.61,-340.21 226.14,-405.55 275,-435.5 283.76,-440.87 293.61,-444.8 303.74,-447.65"/>
<polygon fill="#000000" stroke="#000000" stroke-width="0.5" points="303.45,-449.38 308.73,-448.96 304.34,-445.99 303.45,-449.38"/>
</g>
<!-- FileNameFormatError -->
<g id="node9" class="node">
<title>FileNameFormatError</title>
<g id="a_node9"><a xlink:title="Raised when a DSDL definition file is named incorrectly.">
<polygon fill="white" stroke="#000000" stroke-width="0.5" points="448,-426 327,-426 327,-407 448,-407 448,-426"/>
<text text-anchor="middle" x="387.5" y="-414" font-family="Vera Sans, DejaVu Sans, Liberation Sans, Arial, Helvetica, sans" font-size="10.00" fill="#000000">FileNameFormatError</text>
</a>
</g>
</g>
<!-- InvalidDefinitionError&#45;&gt;FileNameFormatError -->
<g id="edge7" class="edge">
<title>InvalidDefinitionError&#45;&gt;FileNameFormatError</title>
<path fill="none" stroke="#000000" stroke-width="0.5" d="M186.55,-315.07C200.38,-334.43 234.61,-378.12 275,-398.5 289.23,-405.68 305.67,-410.12 321.48,-412.83"/>
<polygon fill="#000000" stroke="#000000" stroke-width="0.5" points="321.6,-414.62 326.81,-413.68 322.15,-411.16 321.6,-414.62"/>
</g>
<!-- FixedPortIDCollisionError -->
<g id="node10" class="node">
<title>FixedPortIDCollisionError</title>
<g id="a_node10"><a xlink:title="Raised when there is more than one data type, or different major versions of the same data type">
<polygon fill="white" stroke="#000000" stroke-width="0.5" points="456,-389 319,-389 319,-370 456,-370 456,-389"/>
<text text-anchor="middle" x="387.5" y="-377" font-family="Vera Sans, DejaVu Sans, Liberation Sans, Arial, Helvetica, sans" font-size="10.00" fill="#000000">FixedPortIDCollisionError</text>
</a>
</g>
</g>
<!-- InvalidDefinitionError&#45;&gt;FixedPortIDCollisionError -->
<g id="edge8" class="edge">
<title>InvalidDefinitionError&#45;&gt;FixedPortIDCollisionError</title>
<path fill="none" stroke="#000000" stroke-width="0.5" d="M192.75,-315.14C210.29,-327.88 243.31,-350.06 275,-361.5 287.21,-365.91 300.57,-369.24 313.65,-371.76"/>
<polygon fill="#000000" stroke="#000000" stroke-width="0.5" points="313.61,-373.53 318.85,-372.72 314.25,-370.09 313.61,-373.53"/>
</g>
<!-- InvalidDirectiveError -->
<g id="node16" class="node">
<title>InvalidDirectiveError</title>
<polygon fill="white" stroke="#000000" stroke-width="0.5" points="446,-352 329,-352 329,-333 446,-333 446,-352"/>
<text text-anchor="middle" x="387.5" y="-340" font-family="Vera Sans, DejaVu Sans, Liberation Sans, Arial, Helvetica, sans" font-size="10.00" fill="#000000">InvalidDirectiveError</text>
</g>
<!-- InvalidDefinitionError&#45;&gt;InvalidDirectiveError -->
<g id="edge14" class="edge">
<title>InvalidDefinitionError&#45;&gt;InvalidDirectiveError</title>
<path fill="none" stroke="#000000" stroke-width="0.5" d="M229.27,-315.02C243.98,-317.81 260.13,-320.82 275,-323.5 291.03,-326.38 308.37,-329.39 324.49,-332.14"/>
<polygon fill="#000000" stroke="#000000" stroke-width="0.5" points="324.23,-333.87 329.46,-332.99 324.82,-330.42 324.23,-333.87"/>
</g>
<!-- InvalidOperandError -->
<g id="node21" class="node">
<title>InvalidOperandError</title>
<polygon fill="white" stroke="#000000" stroke-width="0.5" points="444.5,-315 330.5,-315 330.5,-296 444.5,-296 444.5,-315"/>
<text text-anchor="middle" x="387.5" y="-303" font-family="Vera Sans, DejaVu Sans, Liberation Sans, Arial, Helvetica, sans" font-size="10.00" fill="#000000">InvalidOperandError</text>
</g>
<!-- InvalidDefinitionError&#45;&gt;InvalidOperandError -->
<g id="edge19" class="edge">
<title>InvalidDefinitionError&#45;&gt;InvalidOperandError</title>
<path fill="none" stroke="#000000" stroke-width="0.5" d="M239.17,-305.5C266.1,-305.5 297.95,-305.5 325.14,-305.5"/>
<polygon fill="#000000" stroke="#000000" stroke-width="0.5" points="325.16,-307.25 330.16,-305.5 325.16,-303.75 325.16,-307.25"/>
</g>
<!-- MinorVersionFixedPortIDError -->
<g id="node25" class="node">
<title>MinorVersionFixedPortIDError</title>
<g id="a_node25"><a xlink:title="Different fixed port&#45;ID under the same major version, or a fixed port ID was removed under the same major version.">
<polygon fill="white" stroke="#000000" stroke-width="0.5" points="467,-278 308,-278 308,-259 467,-259 467,-278"/>
<text text-anchor="middle" x="387.5" y="-266" font-family="Vera Sans, DejaVu Sans, Liberation Sans, Arial, Helvetica, sans" font-size="10.00" fill="#000000">MinorVersionFixedPortIDError</text>
</a>
</g>
</g>
<!-- InvalidDefinitionError&#45;&gt;MinorVersionFixedPortIDError -->
<g id="edge23" class="edge">
<title>InvalidDefinitionError&#45;&gt;MinorVersionFixedPortIDError</title>
<path fill="none" stroke="#000000" stroke-width="0.5" d="M225.84,-295.97C241.42,-292.83 258.94,-289.4 275,-286.5 289.48,-283.88 305.04,-281.26 319.82,-278.85"/>
<polygon fill="#000000" stroke="#000000" stroke-width="0.5" points="320.14,-280.57 324.8,-278.04 319.58,-277.11 320.14,-280.57"/>
</g>
<!-- MultipleDefinitionsUnderSameVersionError -->
<g id="node26" class="node">
<title>MultipleDefinitionsUnderSameVersionError</title>
<g id="a_node26"><a xlink:title="For example::">
<polygon fill="white" stroke="#000000" stroke-width="0.5" points="500,-241 275,-241 275,-222 500,-222 500,-241"/>
<text text-anchor="middle" x="387.5" y="-229" font-family="Vera Sans, DejaVu Sans, Liberation Sans, Arial, Helvetica, sans" font-size="10.00" fill="#000000">MultipleDefinitionsUnderSameVersionError</text>
</a>
</g>
</g>
<!-- InvalidDefinitionError&#45;&gt;MultipleDefinitionsUnderSameVersionError -->
<g id="edge24" class="edge">
<title>InvalidDefinitionError&#45;&gt;MultipleDefinitionsUnderSameVersionError</title>
<path fill="none" stroke="#000000" stroke-width="0.5" d="M218.97,-295.94C225.91,-293.41 232.87,-290.3 239,-286.5 258.5,-274.4 254.64,-260.09 275,-249.5 279.99,-246.9 285.27,-244.66 290.7,-242.73"/>
<polygon fill="#000000" stroke="#000000" stroke-width="0.5" points="291.55,-244.29 295.73,-241.04 290.44,-240.97 291.55,-244.29"/>
</g>
<!-- NestedRootNamespaceError -->
<g id="node27" class="node">
<title>NestedRootNamespaceError</title>
<g id="a_node27"><a xlink:title="Nested root namespaces are not allowed. This exception is thrown when this rule is violated.">
<polygon fill="white" stroke="#000000" stroke-width="0.5" points="465,-204 310,-204 310,-185 465,-185 465,-204"/>
<text text-anchor="middle" x="387.5" y="-192" font-family="Vera Sans, DejaVu Sans, Liberation Sans, Arial, Helvetica, sans" font-size="10.00" fill="#000000">NestedRootNamespaceError</text>
</a>
</g>
</g>
<!-- InvalidDefinitionError&#45;&gt;NestedRootNamespaceError -->
<g id="edge25" class="edge">
<title>InvalidDefinitionError&#45;&gt;NestedRootNamespaceError</title>
<path fill="none" stroke="#000000" stroke-width="0.5" d="M223.73,-295.93C229.26,-293.47 234.53,-290.38 239,-286.5 266.62,-262.53 245.64,-234.31 275,-212.5 283.87,-205.91 294.24,-201.35 305.02,-198.24"/>
<polygon fill="#000000" stroke="#000000" stroke-width="0.5" points="305.62,-199.89 310,-196.91 304.72,-196.51 305.62,-199.89"/>
</g>
<!-- RootNamespaceNameCollisionError -->
<g id="node28" class="node">
<title>RootNamespaceNameCollisionError</title>
<g id="a_node28"><a xlink:title="Raised when there is more than one namespace under the same name.">
<polygon fill="white" stroke="#000000" stroke-width="0.5" points="483,-167 292,-167 292,-148 483,-148 483,-167"/>
<text text-anchor="middle" x="387.5" y="-155" font-family="Vera Sans, DejaVu Sans, Liberation Sans, Arial, Helvetica, sans" font-size="10.00" fill="#000000">RootNamespaceNameCollisionError</text>
</a>
</g>
</g>
<!-- InvalidDefinitionError&#45;&gt;RootNamespaceNameCollisionError -->
<g id="edge26" class="edge">
<title>InvalidDefinitionError&#45;&gt;RootNamespaceNameCollisionError</title>
<path fill="none" stroke="#000000" stroke-width="0.5" d="M225.43,-295.92C230.44,-293.46 235.12,-290.38 239,-286.5 275.71,-249.87 235.62,-209.25 275,-175.5 278.72,-172.31 282.77,-169.58 287.06,-167.23"/>
<polygon fill="#000000" stroke="#000000" stroke-width="0.5" points="288.12,-168.66 291.8,-164.84 286.55,-165.53 288.12,-168.66"/>
</g>
<!-- UndefinedDataTypeError -->
<g id="node30" class="node">
<title>UndefinedDataTypeError</title>
<polygon fill="white" stroke="#000000" stroke-width="0.5" points="455,-130 320,-130 320,-111 455,-111 455,-130"/>
<text text-anchor="middle" x="387.5" y="-118" font-family="Vera Sans, DejaVu Sans, Liberation Sans, Arial, Helvetica, sans" font-size="10.00" fill="#000000">UndefinedDataTypeError</text>
</g>
<!-- InvalidDefinitionError&#45;&gt;UndefinedDataTypeError -->
<g id="edge29" class="edge">
<title>InvalidDefinitionError&#45;&gt;UndefinedDataTypeError</title>
<path fill="none" stroke="#000000" stroke-width="0.5" d="M226.3,-295.9C231.03,-293.44 235.41,-290.36 239,-286.5 285.09,-236.92 225.29,-184.45 275,-138.5 285.93,-128.4 300.19,-122.7 314.83,-119.69"/>
<polygon fill="#000000" stroke="#000000" stroke-width="0.5" points="315.21,-121.4 319.81,-118.77 314.57,-117.96 315.21,-121.4"/>
</g>
<!-- UndefinedIdentifierError -->
<g id="node31" class="node">
<title>UndefinedIdentifierError</title>
<polygon fill="white" stroke="#000000" stroke-width="0.5" points="454,-93 321,-93 321,-74 454,-74 454,-93"/>
<text text-anchor="middle" x="387.5" y="-81" font-family="Vera Sans, DejaVu Sans, Liberation Sans, Arial, Helvetica, sans" font-size="10.00" fill="#000000">UndefinedIdentifierError</text>
</g>
<!-- InvalidDefinitionError&#45;&gt;UndefinedIdentifierError -->
<g id="edge30" class="edge">
<title>InvalidDefinitionError&#45;&gt;UndefinedIdentifierError</title>
<path fill="none" stroke="#000000" stroke-width="0.5" d="M226.77,-295.91C231.36,-293.45 235.57,-290.36 239,-286.5 294.59,-223.84 214.83,-159.77 275,-101.5 286.01,-90.84 300.69,-85.01 315.78,-82.06"/>
<polygon fill="#000000" stroke="#000000" stroke-width="0.5" points="316.28,-83.74 320.9,-81.16 315.68,-80.3 316.28,-83.74"/>
</g>
<!-- UnregulatedFixedPortIDError -->
<g id="node33" class="node">
<title>UnregulatedFixedPortIDError</title>
<polygon fill="white" stroke="#000000" stroke-width="0.5" points="465,-56 310,-56 310,-37 465,-37 465,-56"/>
<text text-anchor="middle" x="387.5" y="-44" font-family="Vera Sans, DejaVu Sans, Liberation Sans, Arial, Helvetica, sans" font-size="10.00" fill="#000000">UnregulatedFixedPortIDError</text>
</g>
<!-- InvalidDefinitionError&#45;&gt;UnregulatedFixedPortIDError -->
<g id="edge32" class="edge">
<title>InvalidDefinitionError&#45;&gt;UnregulatedFixedPortIDError</title>
<path fill="none" stroke="#000000" stroke-width="0.5" d="M227.17,-295.86C231.63,-293.4 235.7,-290.34 239,-286.5 304.15,-210.7 204.3,-135.15 275,-64.5 283.31,-56.19 293.85,-50.79 305.1,-47.38"/>
<polygon fill="#000000" stroke="#000000" stroke-width="0.5" points="305.61,-49.06 309.97,-46.04 304.68,-45.68 305.61,-49.06"/>
</g>
<!-- VersionsOfDifferentKindError -->
<g id="node34" class="node">
<title>VersionsOfDifferentKindError</title>
<g id="a_node34"><a xlink:title="Definitions that share the same name but are of different kinds.">
<polygon fill="white" stroke="#000000" stroke-width="0.5" points="466,-19 309,-19 309,0 466,0 466,-19"/>
<text text-anchor="middle" x="387.5" y="-7" font-family="Vera Sans, DejaVu Sans, Liberation Sans, Arial, Helvetica, sans" font-size="10.00" fill="#000000">VersionsOfDifferentKindError</text>
</a>
</g>
</g>
<!-- InvalidDefinitionError&#45;&gt;VersionsOfDifferentKindError -->
<g id="edge33" class="edge">
<title>InvalidDefinitionError&#45;&gt;VersionsOfDifferentKindError</title>
<path fill="none" stroke="#000000" stroke-width="0.5" d="M227.26,-295.93C231.7,-293.46 235.75,-290.37 239,-286.5 313.75,-197.51 193.73,-110.58 275,-27.5 282.97,-19.36 293.06,-13.98 303.91,-10.54"/>
<polygon fill="#000000" stroke="#000000" stroke-width="0.5" points="304.62,-12.16 308.94,-9.09 303.65,-8.79 304.62,-12.16"/>
</g>
<!-- AttributeNameCollisionError -->
<g id="node3" class="node">
<title>AttributeNameCollisionError</title>
<polygon fill="white" stroke="#000000" stroke-width="0.5" points="697.5,-777 543.5,-777 543.5,-758 697.5,-758 697.5,-777"/>
<text text-anchor="middle" x="620.5" y="-765" font-family="Vera Sans, DejaVu Sans, Liberation Sans, Arial, Helvetica, sans" font-size="10.00" fill="#000000">AttributeNameCollisionError</text>
</g>
<!-- TypeParameterError&#45;&gt;AttributeNameCollisionError -->
<g id="edge2" class="edge">
<title>TypeParameterError&#45;&gt;AttributeNameCollisionError</title>
<path fill="none" stroke="#000000" stroke-width="0.5" d="M444.14,-561.71C464.07,-563.6 485.24,-569.39 500,-583.5 554.56,-635.67 482.59,-696.15 536,-749.5 538.1,-751.6 540.38,-753.47 542.8,-755.16"/>
<polygon fill="#000000" stroke="#000000" stroke-width="0.5" points="542.13,-756.8 547.3,-757.98 543.99,-753.84 542.13,-756.8"/>
</g>
<!-- DeprecatedDependencyError -->
<g id="node8" class="node">
<title>DeprecatedDependencyError</title>
<polygon fill="white" stroke="#000000" stroke-width="0.5" points="699,-740 542,-740 542,-721 699,-721 699,-740"/>
<text text-anchor="middle" x="620.5" y="-728" font-family="Vera Sans, DejaVu Sans, Liberation Sans, Arial, Helvetica, sans" font-size="10.00" fill="#000000">DeprecatedDependencyError</text>
</g>
<!-- TypeParameterError&#45;&gt;DeprecatedDependencyError -->
<g id="edge6" class="edge">
<title>TypeParameterError&#45;&gt;DeprecatedDependencyError</title>
<path fill="none" stroke="#000000" stroke-width="0.5" d="M444.28,-562.23C463.99,-564.24 484.98,-569.96 500,-583.5 544.21,-623.36 492.67,-671.69 536,-712.5 538.34,-714.7 540.88,-716.66 543.57,-718.4"/>
<polygon fill="#000000" stroke="#000000" stroke-width="0.5" points="542.72,-719.93 547.91,-720.96 544.49,-716.91 542.72,-719.93"/>
</g>
<!-- InvalidBitLengthError -->
<g id="node13" class="node">
<title>InvalidBitLengthError</title>
<polygon fill="white" stroke="#000000" stroke-width="0.5" points="680,-703 561,-703 561,-684 680,-684 680,-703"/>
<text text-anchor="middle" x="620.5" y="-691" font-family="Vera Sans, DejaVu Sans, Liberation Sans, Arial, Helvetica, sans" font-size="10.00" fill="#000000">InvalidBitLengthError</text>
</g>
<!-- TypeParameterError&#45;&gt;InvalidBitLengthError -->
<g id="edge10" class="edge">
<title>TypeParameterError&#45;&gt;InvalidBitLengthError</title>
<path fill="none" stroke="#000000" stroke-width="0.5" d="M444.14,-563.13C463.61,-565.27 484.47,-570.85 500,-583.5 534.05,-611.22 502.56,-647.04 536,-675.5 541.78,-680.42 548.59,-684.09 555.78,-686.82"/>
<polygon fill="#000000" stroke="#000000" stroke-width="0.5" points="555.52,-688.58 560.81,-688.56 556.66,-685.27 555.52,-688.58"/>
</g>
<!-- InvalidCastModeError -->
<g id="node14" class="node">
<title>InvalidCastModeError</title>
<polygon fill="white" stroke="#000000" stroke-width="0.5" points="681.5,-666 559.5,-666 559.5,-647 681.5,-647 681.5,-666"/>
<text text-anchor="middle" x="620.5" y="-654" font-family="Vera Sans, DejaVu Sans, Liberation Sans, Arial, Helvetica, sans" font-size="10.00" fill="#000000">InvalidCastModeError</text>
</g>
<!-- TypeParameterError&#45;&gt;InvalidCastModeError -->
<g id="edge11" class="edge">
<title>TypeParameterError&#45;&gt;InvalidCastModeError</title>
<path fill="none" stroke="#000000" stroke-width="0.5" d="M444.24,-565.12C463.17,-567.54 483.66,-572.79 500,-583.5 524.44,-599.51 511.92,-621.96 536,-638.5 541.55,-642.31 547.76,-645.34 554.22,-647.74"/>
<polygon fill="#000000" stroke="#000000" stroke-width="0.5" points="553.91,-649.48 559.21,-649.45 555.05,-646.17 553.91,-649.48"/>
</g>
<!-- InvalidConstantValueError -->
<g id="node15" class="node">
<title>InvalidConstantValueError</title>
<polygon fill="white" stroke="#000000" stroke-width="0.5" points="692,-629 549,-629 549,-610 692,-610 692,-629"/>
<text text-anchor="middle" x="620.5" y="-617" font-family="Vera Sans, DejaVu Sans, Liberation Sans, Arial, Helvetica, sans" font-size="10.00" fill="#000000">InvalidConstantValueError</text>
</g>
<!-- TypeParameterError&#45;&gt;InvalidConstantValueError -->
<g id="edge12" class="edge">
<title>TypeParameterError&#45;&gt;InvalidConstantValueError</title>
<path fill="none" stroke="#000000" stroke-width="0.5" d="M444.01,-570.66C462.13,-573.54 482.18,-577.67 500,-583.5 517,-589.06 519.12,-595.57 536,-601.5 543.76,-604.23 552.08,-606.62 560.35,-608.69"/>
<polygon fill="#000000" stroke="#000000" stroke-width="0.5" points="560.22,-610.46 565.49,-609.94 561.05,-607.06 560.22,-610.46"/>
</g>
<!-- InvalidExtentError -->
<g id="node17" class="node">
<title>InvalidExtentError</title>
<polygon fill="white" stroke="#000000" stroke-width="0.5" points="672.5,-592 568.5,-592 568.5,-573 672.5,-573 672.5,-592"/>
<text text-anchor="middle" x="620.5" y="-580" font-family="Vera Sans, DejaVu Sans, Liberation Sans, Arial, Helvetica, sans" font-size="10.00" fill="#000000">InvalidExtentError</text>
</g>
<!-- TypeParameterError&#45;&gt;InvalidExtentError -->
<g id="edge15" class="edge">
<title>TypeParameterError&#45;&gt;InvalidExtentError</title>
<path fill="none" stroke="#000000" stroke-width="0.5" d="M444.12,-568.83C480.13,-571.64 526.88,-575.28 563.05,-578.1"/>
<polygon fill="#000000" stroke="#000000" stroke-width="0.5" points="563.19,-579.87 568.31,-578.51 563.46,-576.38 563.19,-579.87"/>
</g>
<!-- InvalidFixedPortIDError -->
<g id="node18" class="node">
<title>InvalidFixedPortIDError</title>
<polygon fill="white" stroke="#000000" stroke-width="0.5" points="684.5,-555 556.5,-555 556.5,-536 684.5,-536 684.5,-555"/>
<text text-anchor="middle" x="620.5" y="-543" font-family="Vera Sans, DejaVu Sans, Liberation Sans, Arial, Helvetica, sans" font-size="10.00" fill="#000000">InvalidFixedPortIDError</text>
</g>
<!-- TypeParameterError&#45;&gt;InvalidFixedPortIDError -->
<g id="edge16" class="edge">
<title>TypeParameterError&#45;&gt;InvalidFixedPortIDError</title>
<path fill="none" stroke="#000000" stroke-width="0.5" d="M444.12,-559.92C476.32,-557.28 517.09,-553.92 551.21,-551.12"/>
<polygon fill="#000000" stroke="#000000" stroke-width="0.5" points="551.36,-552.86 556.2,-550.71 551.07,-549.37 551.36,-552.86"/>
</g>
<!-- InvalidNameError -->
<g id="node19" class="node">
<title>InvalidNameError</title>
<polygon fill="white" stroke="#000000" stroke-width="0.5" points="671.5,-518 569.5,-518 569.5,-499 671.5,-499 671.5,-518"/>
<text text-anchor="middle" x="620.5" y="-506" font-family="Vera Sans, DejaVu Sans, Liberation Sans, Arial, Helvetica, sans" font-size="10.00" fill="#000000">InvalidNameError</text>
</g>
<!-- TypeParameterError&#45;&gt;InvalidNameError -->
<g id="edge17" class="edge">
<title>TypeParameterError&#45;&gt;InvalidNameError</title>
<path fill="none" stroke="#000000" stroke-width="0.5" d="M444.09,-559.15C462.22,-556.45 482.24,-552.44 500,-546.5 517.16,-540.76 519.03,-533.78 536,-527.5 545.02,-524.16 554.82,-521.29 564.42,-518.87"/>
<polygon fill="#000000" stroke="#000000" stroke-width="0.5" points="564.98,-520.54 569.42,-517.65 564.15,-517.14 564.98,-520.54"/>
</g>
<!-- InvalidNumberOfElementsError -->
<g id="node20" class="node">
<title>InvalidNumberOfElementsError</title>
<polygon fill="white" stroke="#000000" stroke-width="0.5" points="705,-481 536,-481 536,-462 705,-462 705,-481"/>
<text text-anchor="middle" x="620.5" y="-469" font-family="Vera Sans, DejaVu Sans, Liberation Sans, Arial, Helvetica, sans" font-size="10.00" fill="#000000">InvalidNumberOfElementsError</text>
</g>
<!-- TypeParameterError&#45;&gt;InvalidNumberOfElementsError -->
<g id="edge18" class="edge">
<title>TypeParameterError&#45;&gt;InvalidNumberOfElementsError</title>
<path fill="none" stroke="#000000" stroke-width="0.5" d="M444.26,-564.53C463.2,-562.29 483.68,-557.19 500,-546.5 524.75,-530.29 511.78,-507.49 536,-490.5 540.11,-487.62 544.58,-485.17 549.26,-483.08"/>
<polygon fill="#000000" stroke="#000000" stroke-width="0.5" points="550.05,-484.65 554,-481.12 548.71,-481.42 550.05,-484.65"/>
</g>
<!-- InvalidTypeError -->
<g id="node22" class="node">
<title>InvalidTypeError</title>
<polygon fill="white" stroke="#000000" stroke-width="0.5" points="668,-444 573,-444 573,-425 668,-425 668,-444"/>
<text text-anchor="middle" x="620.5" y="-432" font-family="Vera Sans, DejaVu Sans, Liberation Sans, Arial, Helvetica, sans" font-size="10.00" fill="#000000">InvalidTypeError</text>
</g>
<!-- TypeParameterError&#45;&gt;InvalidTypeError -->
<g id="edge20" class="edge">
<title>TypeParameterError&#45;&gt;InvalidTypeError</title>
<path fill="none" stroke="#000000" stroke-width="0.5" d="M444.13,-566.46C463.6,-564.5 484.46,-559.09 500,-546.5 534.44,-518.6 502.46,-482.48 536,-453.5 544.96,-445.76 556.42,-441 567.96,-438.11"/>
<polygon fill="#000000" stroke="#000000" stroke-width="0.5" points="568.42,-439.8 572.91,-436.98 567.65,-436.39 568.42,-439.8"/>
</g>
<!-- InvalidVersionError -->
<g id="node23" class="node">
<title>InvalidVersionError</title>
<polygon fill="white" stroke="#000000" stroke-width="0.5" points="675,-407 566,-407 566,-388 675,-388 675,-407"/>
<text text-anchor="middle" x="620.5" y="-395" font-family="Vera Sans, DejaVu Sans, Liberation Sans, Arial, Helvetica, sans" font-size="10.00" fill="#000000">InvalidVersionError</text>
</g>
<!-- TypeParameterError&#45;&gt;InvalidVersionError -->
<g id="edge21" class="edge">
<title>TypeParameterError&#45;&gt;InvalidVersionError</title>
<path fill="none" stroke="#000000" stroke-width="0.5" d="M444.25,-567.33C463.97,-565.52 484.95,-559.97 500,-546.5 544.66,-506.5 492.63,-457.9 536,-416.5 542.96,-409.86 551.74,-405.36 560.97,-402.34"/>
<polygon fill="#000000" stroke="#000000" stroke-width="0.5" points="561.54,-404 565.83,-400.9 560.54,-400.65 561.54,-404"/>
</g>
<!-- MalformedUnionError -->
<g id="node24" class="node">
<title>MalformedUnionError</title>
<polygon fill="white" stroke="#000000" stroke-width="0.5" points="681.5,-370 559.5,-370 559.5,-351 681.5,-351 681.5,-370"/>
<text text-anchor="middle" x="620.5" y="-358" font-family="Vera Sans, DejaVu Sans, Liberation Sans, Arial, Helvetica, sans" font-size="10.00" fill="#000000">MalformedUnionError</text>
</g>
<!-- TypeParameterError&#45;&gt;MalformedUnionError -->
<g id="edge22" class="edge">
<title>TypeParameterError&#45;&gt;MalformedUnionError</title>
<path fill="none" stroke="#000000" stroke-width="0.5" d="M444.1,-567.85C464.03,-566.14 485.21,-560.54 500,-546.5 555.07,-494.23 482.62,-433.49 536,-379.5 541.27,-374.17 547.69,-370.21 554.62,-367.27"/>
<polygon fill="#000000" stroke="#000000" stroke-width="0.5" points="555.45,-368.83 559.49,-365.4 554.19,-365.56 555.45,-368.83"/>
</g>
<!-- FrontendError -->
<g id="node11" class="node">
<title>FrontendError</title>
<g id="a_node11"><a xlink:title="This is the root exception type for all custom exceptions defined in the library.">
<polygon fill="white" stroke="#000000" stroke-width="0.5" points="83,-296 0,-296 0,-277 83,-277 83,-296"/>
<text text-anchor="middle" x="41.5" y="-284" font-family="Vera Sans, DejaVu Sans, Liberation Sans, Arial, Helvetica, sans" font-size="10.00" fill="#000000">FrontendError</text>
</a>
</g>
</g>
<!-- FrontendError&#45;&gt;InvalidDefinitionError -->
<g id="edge13" class="edge">
<title>FrontendError&#45;&gt;InvalidDefinitionError</title>
<path fill="none" stroke="#000000" stroke-width="0.5" d="M83.15,-292.2C92.8,-293.55 103.33,-295.03 113.74,-296.49"/>
<polygon fill="#000000" stroke="#000000" stroke-width="0.5" points="113.64,-298.24 118.84,-297.2 114.13,-294.78 113.64,-298.24"/>
</g>
<!-- InternalError -->
<g id="node12" class="node">
<title>InternalError</title>
<g id="a_node12"><a xlink:title="This exception is used to report internal errors in the front end itself that prevented it from">
<polygon fill="white" stroke="#000000" stroke-width="0.5" points="217.5,-278 140.5,-278 140.5,-259 217.5,-259 217.5,-278"/>
<text text-anchor="middle" x="179" y="-266" font-family="Vera Sans, DejaVu Sans, Liberation Sans, Arial, Helvetica, sans" font-size="10.00" fill="#000000">InternalError</text>
</a>
</g>
</g>
<!-- FrontendError&#45;&gt;InternalError -->
<g id="edge9" class="edge">
<title>FrontendError&#45;&gt;InternalError</title>
<path fill="none" stroke="#000000" stroke-width="0.5" d="M83.15,-281.1C99.54,-278.92 118.47,-276.41 135.08,-274.2"/>
<polygon fill="#000000" stroke="#000000" stroke-width="0.5" points="135.43,-275.92 140.15,-273.53 134.97,-272.45 135.43,-275.92"/>
</g>
<!-- UndefinedAttributeError -->
<g id="node29" class="node">
<title>UndefinedAttributeError</title>
<g id="a_node29"><a xlink:title="Thrown when the requested attribute does not exist.">
<polygon fill="white" stroke="#000000" stroke-width="0.5" points="686.5,-333 554.5,-333 554.5,-314 686.5,-314 686.5,-333"/>
<text text-anchor="middle" x="620.5" y="-321" font-family="Vera Sans, DejaVu Sans, Liberation Sans, Arial, Helvetica, sans" font-size="10.00" fill="#000000">UndefinedAttributeError</text>
</a>
</g>
</g>
<!-- InvalidOperandError&#45;&gt;UndefinedAttributeError -->
<g id="edge28" class="edge">
<title>InvalidOperandError&#45;&gt;UndefinedAttributeError</title>
<path fill="none" stroke="#000000" stroke-width="0.5" d="M444.71,-309.88C476.15,-312.33 515.63,-315.41 549.11,-318.01"/>
<polygon fill="#000000" stroke="#000000" stroke-width="0.5" points="549.31,-319.79 554.43,-318.43 549.58,-316.3 549.31,-319.79"/>
</g>
<!-- UndefinedOperatorError -->
<g id="node32" class="node">
<title>UndefinedOperatorError</title>
<g id="a_node32"><a xlink:title="Thrown when there is no matching operator for the supplied arguments.">
<polygon fill="white" stroke="#000000" stroke-width="0.5" points="686.5,-296 554.5,-296 554.5,-277 686.5,-277 686.5,-296"/>
<text text-anchor="middle" x="620.5" y="-284" font-family="Vera Sans, DejaVu Sans, Liberation Sans, Arial, Helvetica, sans" font-size="10.00" fill="#000000">UndefinedOperatorError</text>
</a>
</g>
</g>
<!-- InvalidOperandError&#45;&gt;UndefinedOperatorError -->
<g id="edge31" class="edge">
<title>InvalidOperandError&#45;&gt;UndefinedOperatorError</title>
<path fill="none" stroke="#000000" stroke-width="0.5" d="M444.71,-300.88C476.15,-298.29 515.63,-295.04 549.11,-292.29"/>
<polygon fill="#000000" stroke="#000000" stroke-width="0.5" points="549.59,-294.01 554.43,-291.85 549.3,-290.52 549.59,-294.01"/>
</g>
</g>
</svg>
