<?xml version="1.0" encoding="UTF-8" standalone="no"?>
<svg
   xmlns:osb="http://www.openswatchbook.org/uri/2009/osb"
   xmlns:dc="http://purl.org/dc/elements/1.1/"
   xmlns:cc="http://creativecommons.org/ns#"
   xmlns:rdf="http://www.w3.org/1999/02/22-rdf-syntax-ns#"
   xmlns:svg="http://www.w3.org/2000/svg"
   xmlns="http://www.w3.org/2000/svg"
   xmlns:sodipodi="http://sodipodi.sourceforge.net/DTD/sodipodi-0.dtd"
   xmlns:inkscape="http://www.inkscape.org/namespaces/inkscape"
   width="293.99948mm"
   height="96.732994mm"
   viewBox="0 0 293.99948 96.732994"
   version="1.1"
   id="svg8"
   inkscape:version="1.0.1 (3bc2e813f5, 2020-09-07)"
   sodipodi:docname="infrablue-banner.svg">
  <defs
     id="defs2">
    <rect
       x="91.486412"
       y="53.505071"
       width="144.0035"
       height="44.47082"
       id="rect197" />
    <linearGradient
       id="linearGradient2292"
       osb:paint="solid">
      <stop
         style="stop-color:#000000;stop-opacity:1;"
         offset="0"
         id="stop2290" />
    </linearGradient>
    <linearGradient
       id="shadow-gradient"
       x1="-19.530001"
       x2="165.39999"
       y1="-19.530001"
       y2="165.39999"
       gradientUnits="userSpaceOnUse">
      <stop
         id="stop9444"
         offset="0" />
      <stop
         id="stop9446"
         stop-opacity="0"
         offset="1" />
    </linearGradient>
    <filter
       style="color-interpolation-filters:sRGB"
       inkscape:label="Drop Shadow"
       id="filter1689">
      <feFlood
         flood-opacity="0.498039"
         flood-color="rgb(0,0,0)"
         result="flood"
         id="feFlood1679" />
      <feComposite
         in="flood"
         in2="SourceGraphic"
         operator="in"
         result="composite1"
         id="feComposite1681" />
      <feGaussianBlur
         in="composite1"
         stdDeviation="1"
         result="blur"
         id="feGaussianBlur1683" />
      <feOffset
         dx="3"
         dy="3"
         result="offset"
         id="feOffset1685" />
      <feComposite
         in="SourceGraphic"
         in2="offset"
         operator="over"
         result="composite2"
         id="feComposite1687" />
    </filter>
    <filter
       style="color-interpolation-filters:sRGB"
       inkscape:label="Drop Shadow"
       id="filter1701">
      <feFlood
         flood-opacity="0.498039"
         flood-color="rgb(0,0,0)"
         result="flood"
         id="feFlood1691" />
      <feComposite
         in="flood"
         in2="SourceGraphic"
         operator="in"
         result="composite1"
         id="feComposite1693" />
      <feGaussianBlur
         in="composite1"
         stdDeviation="1"
         result="blur"
         id="feGaussianBlur1695" />
      <feOffset
         dx="3"
         dy="3"
         result="offset"
         id="feOffset1697" />
      <feComposite
         in="SourceGraphic"
         in2="offset"
         operator="over"
         result="composite2"
         id="feComposite1699" />
    </filter>
    <linearGradient
       id="shadow-gradient-9"
       x1="-19.530001"
       x2="165.39999"
       y1="-19.530001"
       y2="165.39999"
       gradientUnits="userSpaceOnUse">
      <stop
         id="stop9444-0"
         offset="0" />
      <stop
         id="stop9446-0"
         stop-opacity="0"
         offset="1" />
    </linearGradient>
  </defs>
  <sodipodi:namedview
     id="base"
     pagecolor="#ffffff"
     bordercolor="#666666"
     borderopacity="1.0"
     inkscape:pageopacity="0.0"
     inkscape:pageshadow="2"
     inkscape:zoom="0.69999999"
     inkscape:cx="281.56136"
     inkscape:cy="-70.164043"
     inkscape:document-units="mm"
     inkscape:current-layer="g938"
     showgrid="false"
     inkscape:window-width="1920"
     inkscape:window-height="1019"
     inkscape:window-x="3360"
     inkscape:window-y="0"
     inkscape:window-maximized="1"
     showguides="true"
     inkscape:guide-bbox="true"
     fit-margin-top="0"
     fit-margin-left="0"
     fit-margin-right="0"
     fit-margin-bottom="0"
     inkscape:document-rotation="0">
    <sodipodi:guide
       position="232.19718,49.803852"
       orientation="1,0"
       id="guide2367"
       inkscape:locked="false" />
    <sodipodi:guide
       position="41.63401,-6.3227481"
       orientation="1,0"
       id="guide2369"
       inkscape:locked="false" />
    <sodipodi:guide
       position="112.86134,83.078911"
       orientation="0,1"
       id="guide2405"
       inkscape:locked="false" />
    <sodipodi:guide
       position="106.44687,36.707652"
       orientation="0,1"
       id="guide2407"
       inkscape:locked="false" />
    <sodipodi:guide
       position="87.943818,36.707662"
       orientation="1,0"
       id="guide2691"
       inkscape:locked="false" />
  </sodipodi:namedview>
  <metadata
     id="metadata5">
    <rdf:RDF>
      <cc:Work
         rdf:about="">
        <dc:format>image/svg+xml</dc:format>
        <dc:type
           rdf:resource="http://purl.org/dc/dcmitype/StillImage" />
        <dc:title />
      </cc:Work>
    </rdf:RDF>
  </metadata>
  <g
     inkscape:label="Layer 1"
     inkscape:groupmode="layer"
     id="layer1"
     transform="translate(-3,-39.997002)">
    <g
       id="g938"
       transform="matrix(1.5379515,0,0,1.5379515,-65.338762,-42.304096)">
      <g
         id="d"
         transform="matrix(0.93707036,0,0,0.93705726,44.973892,53.505074)">
        <rect
           id="e"
           y="-3.357e-06"
           width="67.730003"
           height="67.730003"
           rx="3.3069999"
           ry="3.3069999"
           fill="#26377d"
           stroke-width="1.0001"
           x="0" />
        <path
           id="f"
           d="M 3.3071,0 C 1.475,0 0,1.4751 0,3.3071 v 20.903 A 55.282,27.573 0 0 0 18.853,25.8637 55.282,27.573 0 0 0 67.73,11.1727 V 3.3073 C 67.73,1.4752 66.2549,2e-4 64.4229,2e-4 Z"
           fill="#b7bfdf"
           opacity="0.2"
           stroke-width="0.26457" />
      </g>
      <g
         id="g"
         stroke-width="1.4775"
         transform="matrix(0.93707036,0,0,0.93705726,44.973892,53.505074)">
        <path
           id="h"
           d="m 37.498,36.114 c 0,0 -5.2454,-8.8e-5 -9.5597,3.6936 -1.6252,-0.4728 -3.3834,-0.73842 -5.2154,-0.73842 -8.1262,0 -14.775,5.2894 -14.775,11.82 0,6.5305 6.6489,11.82 14.775,11.82 8.1262,0 14.775,-5.2894 14.775,-11.82 0,-3.1471 -1.5514,-6.0134 -4.0631,-8.1262 0.07387,-0.8865 0.62056,-3.2063 4.0631,-6.6489 z M 22.792,46.27 a 2.2738,2.2738 0 0 1 2.2737,2.2742 2.2738,2.2738 0 0 1 -2.2737,2.2736 2.2738,2.2738 0 0 1 -2.2742,-2.2736 2.2738,2.2738 0 0 1 2.2742,-2.2742 z m -4.5478,1.6241 c 0.36382,0 0.70185,0.09743 0.99421,0.27284 -0.09745,0.92903 0.17505,1.8517 0.73377,2.5728 -0.32484,0.62368 -0.97436,1.0526 -1.728,1.0526 a 1.949,1.949 0 0 1 -1.9491,-1.9491 1.949,1.949 0 0 1 1.9491,-1.9491 z m 9.0956,0 a 1.949,1.949 0 0 1 1.9486,1.9491 1.949,1.949 0 0 1 -1.9486,1.9491 c -0.75362,0 -1.4037,-0.42891 -1.7285,-1.0526 a 3.5966,3.5966 0 0 0 0.73429,-2.5728 c 0.29235,-0.17541 0.63039,-0.27284 0.99421,-0.27284 z m -4.5478,4.2228 c 2.3323,0 4.2228,1.0916 4.2228,2.4364 v 1.1368 h -8.4456 v -1.1368 c 0,-1.3448 1.8905,-2.4364 4.2228,-2.4364 z m -4.9049,0.71465 c -0.38331,0.44178 -0.6175,1.0526 -0.6175,1.7218 v 1.1368 h -2.2737 v -0.97457 c 0,-0.90304 1.228,-1.6631 2.8912,-1.884 z m 9.8098,0 c 1.6632,0.22089 2.8912,0.98099 2.8912,1.884 v 0.97457 h -2.2742 v -1.1368 c 0,-0.66916 -0.23368,-1.28 -0.61699,-1.7218 z"
           fill="#1d2542" />
        <path
           id="i"
           d="m 35.911,34.527 c 0,0 -5.2454,-8.8e-5 -9.5597,3.6936 -1.6252,-0.4728 -3.3834,-0.73842 -5.2154,-0.73842 -8.1262,0 -14.775,5.2894 -14.775,11.82 0,6.5305 6.6489,11.82 14.775,11.82 8.1262,0 14.775,-5.2894 14.775,-11.82 0,-3.1471 -1.5514,-6.0134 -4.0631,-8.1262 0.07387,-0.8865 0.62056,-3.2063 4.0631,-6.6489 z M 21.205,44.683 a 2.2738,2.2738 0 0 1 2.2737,2.2742 2.2738,2.2738 0 0 1 -2.2737,2.2736 2.2738,2.2738 0 0 1 -2.2742,-2.2736 2.2738,2.2738 0 0 1 2.2742,-2.2742 z m -4.5478,1.6241 c 0.36382,0 0.70185,0.09743 0.99421,0.27284 -0.09745,0.92903 0.17505,1.8517 0.73377,2.5728 -0.32484,0.62368 -0.97436,1.0526 -1.728,1.0526 a 1.949,1.949 0 0 1 -1.9491,-1.9491 1.949,1.949 0 0 1 1.9491,-1.9491 z m 9.0956,0 a 1.949,1.949 0 0 1 1.9486,1.9491 1.949,1.949 0 0 1 -1.9486,1.9491 c -0.75362,0 -1.4037,-0.42891 -1.7285,-1.0526 a 3.5966,3.5966 0 0 0 0.73429,-2.5728 c 0.29235,-0.17541 0.63039,-0.27284 0.99421,-0.27284 z m -4.5478,4.2228 c 2.3323,0 4.2228,1.0916 4.2228,2.4364 v 1.1368 h -8.4456 v -1.1368 c 0,-1.3448 1.8905,-2.4364 4.2228,-2.4364 z m -4.9049,0.71465 c -0.38331,0.44178 -0.6175,1.0526 -0.6175,1.7218 v 1.1368 h -2.2737 v -0.97457 c 0,-0.90304 1.228,-1.6631 2.8912,-1.884 z m 9.8098,0 c 1.6632,0.22089 2.8912,0.98099 2.8912,1.884 v 0.97457 h -2.2742 v -1.1368 c 0,-0.66916 -0.23368,-1.28 -0.61699,-1.7218 z"
           fill="#b7bfdf" />
      </g>
      <g
         id="j"
         stroke-width="1.4775"
         transform="matrix(0.93707036,0,0,0.93705726,44.973892,53.505074)">
        <path
           id="k"
           d="m 48.022,8.1676 c -8.1262,0 -14.775,5.2894 -14.775,11.82 0,3.1471 1.5514,6.0134 4.0631,8.1262 -0.07387,0.8865 -0.62056,3.2063 -4.0631,6.6489 0,0 5.2454,8.8e-5 9.5597,-3.6936 1.6252,0.4728 3.3834,0.73842 5.2154,0.73842 8.1262,0 14.775,-5.2894 14.775,-11.82 0,-6.5305 -6.6489,-11.82 -14.775,-11.82 z m -5.6309,7.086 h 9.5002 a 0.79167,0.79167 0 0 1 0.79164,0.79164 v 2.7708 l 3.1666,-3.1666 v 8.7081 l -3.1666,-3.1666 v 2.7708 a 0.79167,0.79167 0 0 1 -0.79164,0.79164 h -9.5002 a 0.79167,0.79167 0 0 1 -0.79164,-0.79164 v -7.9164 A 0.79167,0.79167 0 0 1 42.3911,15.2537 Z"
           fill="#1d2542" />
        <path
           id="l"
           d="m 46.434,6.5802 c -8.1262,0 -14.775,5.2894 -14.775,11.82 0,3.1471 1.5514,6.0134 4.0631,8.1262 -0.07387,0.8865 -0.62056,3.2063 -4.0631,6.6489 0,0 5.2454,8.8e-5 9.5597,-3.6936 1.6252,0.4728 3.3834,0.73842 5.2154,0.73842 8.1262,0 14.775,-5.2894 14.775,-11.82 0,-6.5305 -6.6489,-11.82 -14.775,-11.82 z m -5.6309,7.086 h 9.5002 a 0.79167,0.79167 0 0 1 0.79164,0.79164 v 2.7708 l 3.1666,-3.1666 v 8.7081 l -3.1666,-3.1666 v 2.7708 a 0.79167,0.79167 0 0 1 -0.79164,0.79164 h -9.5002 a 0.79167,0.79167 0 0 1 -0.79164,-0.79164 v -7.9164 A 0.79167,0.79167 0 0 1 40.8031,13.6663 Z"
           fill="#b7bfdf" />
      </g>
    </g>
  </g>
</svg>
