<?xml version="1.0" encoding="UTF-8"?>
<svg id="a" width="256" height="256" version="1.1" viewBox="0 0 67.73 67.73" xmlns="http://www.w3.org/2000/svg" xmlns:cc="http://creativecommons.org/ns#" xmlns:dc="http://purl.org/dc/elements/1.1/" xmlns:rdf="http://www.w3.org/1999/02/22-rdf-syntax-ns#" xmlns:xlink="http://www.w3.org/1999/xlink">
 <title id="b">AlekSIS icon</title>
 <metadata id="c">
  <rdf:RDF>
   <cc:Work rdf:about="">
    <dc:format>image/svg+xml</dc:format>
    <dc:type rdf:resource="http://purl.org/dc/dcmitype/StillImage"/>
    <dc:title>AlekSIS icon</dc:title>
    <cc:license rdf:resource="http://creativecommons.org/licenses/by-sa/4.0/"/>
    <dc:date>2020-06-05</dc:date>
    <dc:creator>
     <cc:Agent>
      <dc:title>Dominik George</dc:title>
     </cc:Agent>
    </dc:creator>
   </cc:Work>
   <cc:License rdf:about="http://creativecommons.org/licenses/by-sa/4.0/">
    <cc:permits rdf:resource="http://creativecommons.org/ns#Reproduction"/>
    <cc:permits rdf:resource="http://creativecommons.org/ns#Distribution"/>
    <cc:requires rdf:resource="http://creativecommons.org/ns#Notice"/>
    <cc:requires rdf:resource="http://creativecommons.org/ns#Attribution"/>
    <cc:permits rdf:resource="http://creativecommons.org/ns#DerivativeWorks"/>
    <cc:requires rdf:resource="http://creativecommons.org/ns#ShareAlike"/>
   </cc:License>
  </rdf:RDF>
 </metadata>
 <g id="d">
  <rect id="e" y="-3.357e-6" width="67.73" height="67.73" rx="3.307" ry="3.307" fill="#26377d" stroke-width="1.0001"/>
  <path id="f" d="m3.3071 0c-1.8321 0-3.3071 1.4751-3.3071 3.3071v20.903a55.282 27.573 0 0 0 18.853 1.6536 55.282 27.573 0 0 0 48.877-14.691v-7.8654c0-1.8321-1.4751-3.3071-3.3071-3.3071z" fill="#b7bfdf" opacity=".2" stroke-width=".26457"/>
 </g>
 <g id="g" stroke-width="1.4775">
  <path id="h" d="m37.498 36.114s-5.2454-8.8e-5 -9.5597 3.6936c-1.6252-0.4728-3.3834-0.73842-5.2154-0.73842-8.1262 0-14.775 5.2894-14.775 11.82 0 6.5305 6.6489 11.82 14.775 11.82 8.1262 0 14.775-5.2894 14.775-11.82 0-3.1471-1.5514-6.0134-4.0631-8.1262 0.07387-0.8865 0.62056-3.2063 4.0631-6.6489zm-14.706 10.156a2.2738 2.2738 0 0 1 2.2737 2.2742 2.2738 2.2738 0 0 1-2.2737 2.2736 2.2738 2.2738 0 0 1-2.2742-2.2736 2.2738 2.2738 0 0 1 2.2742-2.2742zm-4.5478 1.6241c0.36382 0 0.70185 0.09743 0.99421 0.27284-0.09745 0.92903 0.17505 1.8517 0.73377 2.5728-0.32484 0.62368-0.97436 1.0526-1.728 1.0526a1.949 1.949 0 0 1-1.9491-1.9491 1.949 1.949 0 0 1 1.9491-1.9491zm9.0956 0a1.949 1.949 0 0 1 1.9486 1.9491 1.949 1.949 0 0 1-1.9486 1.9491c-0.75362 0-1.4037-0.42891-1.7285-1.0526a3.5966 3.5966 0 0 0 0.73429-2.5728c0.29235-0.17541 0.63039-0.27284 0.99421-0.27284zm-4.5478 4.2228c2.3323 0 4.2228 1.0916 4.2228 2.4364v1.1368h-8.4456v-1.1368c0-1.3448 1.8905-2.4364 4.2228-2.4364zm-4.9049 0.71465c-0.38331 0.44178-0.6175 1.0526-0.6175 1.7218v1.1368h-2.2737v-0.97457c0-0.90304 1.228-1.6631 2.8912-1.884zm9.8098 0c1.6632 0.22089 2.8912 0.98099 2.8912 1.884v0.97457h-2.2742v-1.1368c0-0.66916-0.23368-1.28-0.61699-1.7218z" fill="#1d2542"/>
  <path id="i" d="m35.911 34.527s-5.2454-8.8e-5 -9.5597 3.6936c-1.6252-0.4728-3.3834-0.73842-5.2154-0.73842-8.1262 0-14.775 5.2894-14.775 11.82 0 6.5305 6.6489 11.82 14.775 11.82 8.1262 0 14.775-5.2894 14.775-11.82 0-3.1471-1.5514-6.0134-4.0631-8.1262 0.07387-0.8865 0.62056-3.2063 4.0631-6.6489zm-14.706 10.156a2.2738 2.2738 0 0 1 2.2737 2.2742 2.2738 2.2738 0 0 1-2.2737 2.2736 2.2738 2.2738 0 0 1-2.2742-2.2736 2.2738 2.2738 0 0 1 2.2742-2.2742zm-4.5478 1.6241c0.36382 0 0.70185 0.09743 0.99421 0.27284-0.09745 0.92903 0.17505 1.8517 0.73377 2.5728-0.32484 0.62368-0.97436 1.0526-1.728 1.0526a1.949 1.949 0 0 1-1.9491-1.9491 1.949 1.949 0 0 1 1.9491-1.9491zm9.0956 0a1.949 1.949 0 0 1 1.9486 1.9491 1.949 1.949 0 0 1-1.9486 1.9491c-0.75362 0-1.4037-0.42891-1.7285-1.0526a3.5966 3.5966 0 0 0 0.73429-2.5728c0.29235-0.17541 0.63039-0.27284 0.99421-0.27284zm-4.5478 4.2228c2.3323 0 4.2228 1.0916 4.2228 2.4364v1.1368h-8.4456v-1.1368c0-1.3448 1.8905-2.4364 4.2228-2.4364zm-4.9049 0.71465c-0.38331 0.44178-0.6175 1.0526-0.6175 1.7218v1.1368h-2.2737v-0.97457c0-0.90304 1.228-1.6631 2.8912-1.884zm9.8098 0c1.6632 0.22089 2.8912 0.98099 2.8912 1.884v0.97457h-2.2742v-1.1368c0-0.66916-0.23368-1.28-0.61699-1.7218z" fill="#b7bfdf"/>
 </g>
 <g id="j" stroke-width="1.4775">
  <path id="k" d="m48.022 8.1676c-8.1262 0-14.775 5.2894-14.775 11.82 0 3.1471 1.5514 6.0134 4.0631 8.1262-0.07387 0.8865-0.62056 3.2063-4.0631 6.6489 0 0 5.2454 8.8e-5 9.5597-3.6936 1.6252 0.4728 3.3834 0.73842 5.2154 0.73842 8.1262 0 14.775-5.2894 14.775-11.82 0-6.5305-6.6489-11.82-14.775-11.82zm-5.6309 7.086h9.5002a0.79167 0.79167 0 0 1 0.79164 0.79164v2.7708l3.1666-3.1666v8.7081l-3.1666-3.1666v2.7708a0.79167 0.79167 0 0 1-0.79164 0.79164h-9.5002a0.79167 0.79167 0 0 1-0.79164-0.79164v-7.9164a0.79167 0.79167 0 0 1 0.79164-0.79164z" fill="#1d2542"/>
  <path id="l" d="m46.434 6.5802c-8.1262 0-14.775 5.2894-14.775 11.82 0 3.1471 1.5514 6.0134 4.0631 8.1262-0.07387 0.8865-0.62056 3.2063-4.0631 6.6489 0 0 5.2454 8.8e-5 9.5597-3.6936 1.6252 0.4728 3.3834 0.73842 5.2154 0.73842 8.1262 0 14.775-5.2894 14.775-11.82 0-6.5305-6.6489-11.82-14.775-11.82zm-5.6309 7.086h9.5002a0.79167 0.79167 0 0 1 0.79164 0.79164v2.7708l3.1666-3.1666v8.7081l-3.1666-3.1666v2.7708a0.79167 0.79167 0 0 1-0.79164 0.79164h-9.5002a0.79167 0.79167 0 0 1-0.79164-0.79164v-7.9164a0.79167 0.79167 0 0 1 0.79164-0.79164z" fill="#b7bfdf"/>
 </g>
</svg>
