<svg id="Layer_1" data-name="Layer 1" xmlns="http://www.w3.org/2000/svg" viewBox="0 0 100 74"><defs><style>.cls-1{fill:#fff;}</style></defs><path class="cls-1" d="M3.3,57.13v3.58h-2V51c1.32-.05,2.09-.07,2.31-.07a7.89,7.89,0,0,1,3.86.71,2.35,2.35,0,0,1,1.22,2.2q0,3.35-4.51,3.35C4,57.18,3.67,57.16,3.3,57.13Zm0-4.64V55.6c.33,0,.6,0,.79,0a3.88,3.88,0,0,0,2-.39A1.41,1.41,0,0,0,6.69,54c0-1-.93-1.52-2.79-1.52A3.86,3.86,0,0,0,3.3,52.49Z"/><path class="cls-1" d="M13,51h2v6.59a1.65,1.65,0,0,0,.55,1.27,2.18,2.18,0,0,0,1.51.49,2.61,2.61,0,0,0,1.67-.48,1.6,1.6,0,0,0,.6-1.32V51h2v6.69A2.76,2.76,0,0,1,20.07,60a5.11,5.11,0,0,1-3.08.84,4.75,4.75,0,0,1-3-.82A2.84,2.84,0,0,1,13,57.67Z"/><path class="cls-1" d="M29.39,60.71H26V51q2.25-.09,3.15-.09a4.79,4.79,0,0,1,2.71.65,2.07,2.07,0,0,1,1,1.85,2,2,0,0,1-1.4,1.82,2.56,2.56,0,0,1,2.08,2.6,2.42,2.42,0,0,1-1.15,2.11A5.18,5.18,0,0,1,29.39,60.71ZM28,52.37V54.7c.31,0,.62,0,1,0,1.29,0,1.93-.42,1.93-1.27s-.58-1.12-1.75-1.12Zm0,3.68v3.21c.41,0,.73.05,1,.05a3.63,3.63,0,0,0,1.92-.39,1.44,1.44,0,0,0,.6-1.3,1.35,1.35,0,0,0-.56-1.21A3.65,3.65,0,0,0,29,56Z"/><path class="cls-1" d="M37.74,60.71V51h2v8.19h5v1.53Z"/><path class="cls-1" d="M48.87,60.71V51h2v9.72Z"/><path class="cls-1" d="M60.19,52.52v8.19h-2V52.52H54.66V51h9.23v1.53Z"/><path class="cls-1" d="M67.13,60.71v-.56l4.65-7.63H67.2V51h7.27v.55l-4.66,7.64h4.83v1.53Z"/><path class="cls-1" d="M80.85,52.52v2.27h3.68v1.47H80.85v2.92H85.9v1.53h-7V51H86v1.53Z"/><path class="cls-1" d="M96.5,60.71l-3-4-1.25,0v4.06H90.21V51l1.29-.05c.75,0,1.34,0,1.8,0q4.24,0,4.25,2.86A2.44,2.44,0,0,1,97,55.33a3.2,3.2,0,0,1-1.47,1l3.29,4.38Zm-4.23-8.22v2.7l.83,0a4.13,4.13,0,0,0,1.82-.31,1.22,1.22,0,0,0,.57-1.19,1,1,0,0,0-.61-1,4.93,4.93,0,0,0-1.94-.28A5.12,5.12,0,0,0,92.27,52.49Z"/><rect class="cls-1" x="44.33" y="1.75" width="11.33" height="11.33"/><polygon class="cls-1" points="31.57 27.28 31.57 27.28 31.57 38.61 42.91 27.28 31.57 27.28"/><polygon class="cls-1" points="57.09 1.75 57.09 13.09 68.42 13.09 57.09 1.75"/><polygon class="cls-1" points="68.42 14.51 57.09 14.51 57.09 25.85 68.42 14.51"/><rect class="cls-1" x="31.57" y="14.51" width="11.33" height="11.33"/><polygon class="cls-1" points="42.91 1.75 31.58 13.09 31.58 13.09 42.91 13.09 42.91 1.75"/><polygon class="cls-1" points="44.33 25.85 44.33 25.85 55.66 25.85 55.66 14.52 44.33 14.52 44.33 14.52 44.33 25.85"/><path class="cls-1" d="M47.5,69.69v3.2h-.38l-.07-.63a2.26,2.26,0,0,1-1.67.72A1.46,1.46,0,0,1,44,72.3a4.42,4.42,0,0,1-.41-2.18,3.71,3.71,0,0,1,.49-2.23,2.09,2.09,0,0,1,1.73-.62,7,7,0,0,1,1.55.15l-.07.39a13.94,13.94,0,0,0-1.45-.08,2.1,2.1,0,0,0-1,.2,1.26,1.26,0,0,0-.52.72,5.11,5.11,0,0,0-.17,1.49A3.9,3.9,0,0,0,44.47,72a1.08,1.08,0,0,0,1,.55,1.71,1.71,0,0,0,.59-.11,2.91,2.91,0,0,0,.46-.21c.11-.08.26-.18.43-.32v-2.2Z"/><path class="cls-1" d="M52.71,67.9a1.92,1.92,0,0,1,1.65-.63A2,2,0,0,1,56,67.9a5.5,5.5,0,0,1,0,4.45,2,2,0,0,1-1.66.63,1.92,1.92,0,0,1-1.65-.63,5.4,5.4,0,0,1,0-4.45Zm2.88.36a1.69,1.69,0,0,0-2.46,0,3.51,3.51,0,0,0-.35,1.87A3.47,3.47,0,0,0,53.13,72a1.69,1.69,0,0,0,2.46,0,3.57,3.57,0,0,0,.35-1.86A3.61,3.61,0,0,0,55.59,68.26Z"/></svg>