<?xml version="1.0" encoding="UTF-8"?>
<svg width="99px" height="76px" viewBox="0 0 99 76" version="1.1" xmlns="http://www.w3.org/2000/svg" xmlns:xlink="http://www.w3.org/1999/xlink">
    <title>Artboard</title>
    <g id="Artboard" stroke="none" stroke-width="1" fill="none" fill-rule="evenodd">
        <path d="M33.9291992,76.0683594 L35.0229492,72.7836914 L35.6176758,76 L36.2670898,76 L35.2519531,70.9926758 L34.9443359,70.9926758 L33.84375,74.6464844 L32.6508789,70.9926758 L32.3398438,70.9926758 L31.4033203,76 L32.0527344,76 L32.6337891,72.7836914 L33.7583008,76.0683594 L33.9291992,76.0683594 Z M43.6171875,76 L43.6171875,70.9926758 L42.9335938,70.9926758 L42.9335938,76 L43.6171875,76 Z M54.2041016,76.0683594 L54.2041016,70.9926758 L53.5546875,70.9926758 L53.5546875,74.4550781 L51.0356445,70.9926758 L50.762207,70.9926758 L50.762207,76 L51.4116211,76 L51.4116211,72.4077148 L53.9990234,76.0683594 L54.2041016,76.0683594 Z M62.0327148,76 L62.0327148,70.9926758 L61.3491211,70.9926758 L61.3491211,76 L62.0327148,76 Z" id="MINI" fill="#FFFFFF" fill-rule="nonzero"></path>
        <g id="publitzer" transform="translate(0.000000, 55.000000)" fill="#FFFFFF" fill-rule="nonzero">
            <path d="M96.6000348,11 L93.4785659,6.50360964 C93.16191,6.49612328 92.7237178,6.48113921 92.1589569,6.45106897 L92.1589569,11 L90,11 L90,0.11074149 C90.1179081,0.11074149 90.5683571,0.0919121476 91.3513151,0.0562838549 C92.1360711,0.018727256 92.7642547,0 93.2446329,0 C96.2199561,0 97.7049685,1.06925713 97.7049685,3.2095976 C97.7049685,3.85491094 97.5009327,4.44020859 97.0891374,4.97103725 C96.680949,5.50187726 96.1618532,5.87519734 95.5407769,6.09464993 L99,11 C99,11 96.6000348,11 96.6000348,11 Z M92.1589569,1.79150988 L92.1589569,4.81718111 C92.5407485,4.84532303 92.8363168,4.86039785 93.0369478,4.86039785 C93.9079272,4.86039785 94.5396219,4.74591318 94.9425012,4.51896288 C95.3454763,4.29009562 95.547799,3.84742458 95.547799,3.18712716 C95.547799,2.65245323 95.3314107,2.27922389 94.9020494,2.06534071 C94.4691771,1.85337448 93.7899978,1.74647826 92.8610219,1.74647826 C92.6393138,1.74647826 92.4035508,1.76145099 92.1589569,1.79150988 Z" id="Shape"></path>
            <polygon id="Path" points="80.9481996 1.73386354 80.9481996 4.30907812 84.5726319 4.30907812 84.5726319 5.96900104 80.9481996 5.96900104 80.9481996 9.26430312 85.9192411 9.26430312 85.9192411 11 79 11 79 0 86 0 86 1.73385208 80.9481996 1.73385208"></polygon>
            <polygon id="Path" points="67 10.9999885 67 10.3690698 71.9549605 1.73385208 67.0803437 1.73385208 67.0803437 0 74.8233389 0 74.8233389 0.630930208 69.8523076 9.26430312 75 9.26430312 75 11 67 11"></polygon>
            <polygon id="Path" points="60.3891967 1.73385208 60.3891967 11 58.4573059 11 58.4573059 1.73385208 55 1.73385208 55 0 64 0 64 1.73385208"></polygon>
            <polygon id="Path" points="49 11 49 0 51 0 51 11"></polygon>
            <polygon id="Path" points="37 11 37 0 38.97277 0 38.97277 9.26430312 44 9.26430312 44 11 37 11"></polygon>
            <path d="M28.6232744,11 L25,11 L25,0.103384612 C26.5960792,0.0338481809 27.7129803,0 28.3560458,0 C29.586941,0 30.5471392,0.240435669 31.2400226,0.726986231 C31.9348342,1.20978851 32.2821268,1.90099562 32.2821268,2.79888109 C32.2821268,3.66108967 31.7833339,4.34297149 30.7911338,4.84452657 C32.262512,5.31597039 33,6.28715194 33,7.76169456 C33,8.75537719 32.5938737,9.54237012 31.7780343,10.1247065 C30.9621195,10.7070542 29.911172,11 28.6232744,11 Z M27.1038124,1.65113244 L27.1038124,4.26400755 C27.4262231,4.28467993 27.762852,4.29410744 28.1191927,4.29410744 C29.4908167,4.29410744 30.1765802,3.8188131 30.1765802,2.87216581 C30.1765802,2.03438926 29.5513737,1.61362684 28.3097179,1.61362684 C27.9802088,1.61362684 27.5776156,1.62670041 27.1038124,1.65113244 Z M27.1038124,5.77424977 L27.1038124,9.37705924 C27.5295535,9.41283835 27.8715681,9.42784287 28.1405309,9.42784287 C29.0757394,9.42784287 29.7579483,9.28127343 30.1837109,8.990145 C30.6058758,8.69709699 30.8178362,8.21064865 30.8178362,7.53059553 C30.8178362,6.9107422 30.6219253,6.45987989 30.2247501,6.17625939 C29.8310002,5.89446761 29.1452367,5.75174867 28.1618691,5.75174867 C27.9570179,5.75174867 27.6061599,5.76116484 27.1038124,5.77424977 Z" id="Shape"></path>
            <path d="M12,0 L13.910562,0 L13.910562,7.33081303 C13.910562,7.9122471 14.0870344,8.38557499 14.4400184,8.74898254 C14.7929925,9.11229995 15.2787052,9.29492208 15.8939746,9.29492208 C16.5869114,9.29492208 17.1245232,9.11602969 17.5098253,8.76014923 C17.8951274,8.40417862 18.0878715,7.9141514 18.0878715,7.29541993 L18.0878715,0 L20,0 L20,7.44263768 C20,8.55511485 19.6276212,9.42544051 18.8844595,10.0552485 C18.1429231,10.6851467 17.1503895,11 15.9101484,11 C14.6585504,11 13.6984329,10.6925836 13.0151886,10.0776721 C12.3368297,9.46265905 12,8.58126811 12,7.43520073 C12,7.43520073 12,0 12,0 Z" id="Path"></path>
            <path d="M2.14051536,6.97951789 L2.14051536,11 L0,11 L0,0.0809589292 C1.42635999,0.026314782 2.26013672,0 2.50112196,0 C4.40778662,0 5.79972328,0.263477893 6.68053756,0.794303499 C7.56143951,1.3231942 8,2.14949201 8,3.27329937 C8,5.77861003 6.37244818,7.03222712 3.11189775,7.03222712 C2.86906037,7.03223851 2.54650465,7.01334467 2.14051536,6.97951789 Z M2.14051536,1.75997177 L2.14051536,5.25724272 C2.50112196,5.29106951 2.7874899,5.30802843 2.99590394,5.30802843 C3.97461813,5.30802843 4.68515692,5.16115735 5.13818376,4.86567376 C5.58769264,4.56826664 5.80881954,4.08832918 5.80881954,3.42201431 C5.80881954,2.28886247 4.80476732,1.72228655 2.79110648,1.72228655 C2.56459855,1.72228655 2.34894037,1.73356594 2.14051536,1.75997177 Z" id="Shape"></path>
        </g>
        <g id="sign_1_" transform="translate(30.000000, 0.000000)" fill="#FFFFFF" fill-rule="nonzero">
            <polygon id="Path" points="12 0 12 12 0 12"></polygon>
            <rect id="Rectangle" x="13" y="0" width="12" height="12"></rect>
            <polygon id="Path" points="38 12 26 12 26 0"></polygon>
            <rect id="Rectangle" x="0.00025" y="13" width="11.99975" height="12"></rect>
            <rect id="Rectangle" x="13.0005" y="13" width="11.9995" height="12"></rect>
            <polygon id="Path" points="26 25 26 13 38 13"></polygon>
            <polygon id="Path" points="0 38 0 26 12 26"></polygon>
        </g>
    </g>
</svg>